<svg width="32" height="32" viewBox="0 0 32 32" fill="none" xmlns="http://www.w3.org/2000/svg">
<path d="M32 16C32 24.8366 24.8366 32 16 32C7.16344 32 0 24.8366 0 16C0 7.16344 7.16344 0 16 0C24.8366 0 32 7.16344 32 16Z" fill="url(#paint0_linear_16_66)"/>
<path d="M9.27296 19.8737L3.97888 17.2275V16.5699L9.27296 13.9237V14.9315L5.27424 16.8232L5.008 16.8987L5.27424 16.9634L9.27296 18.8551V19.8737Z" fill="white"/>
<path d="M9.91584 20.542L12.4042 12.0374H13.3309L10.8426 20.542H9.91584Z" fill="white"/>
<path d="M18.9171 19.8737L17.0534 14.301H18.2106L19.4547 18.5371L19.5264 18.8227L19.5981 18.5371L20.832 14.301H21.943L20.0794 19.8737H18.9171ZM15.5277 19.8737L13.6538 14.301H14.8109L16.055 18.5371L16.1267 18.8227L16.1984 18.5371L17.0842 16.0472C17.1866 16.1909 17.2719 16.3795 17.3402 16.6131C17.4118 16.843 17.4511 17.0909 17.4579 17.3568C17.4647 17.6227 17.4238 17.8796 17.335 18.1275L16.6438 19.8737H15.5277Z" fill="white"/>
<path d="M22.5501 19.8737V18.8551L26.5488 16.9634L26.815 16.8987L26.5488 16.8232L22.5501 14.9315V13.9237L27.8442 16.5699V17.2275L22.5501 19.8737Z" fill="white"/>
<defs>
<linearGradient id="paint0_linear_16_66" x1="0" y1="32" x2="38.5783" y2="14.5093" gradientUnits="userSpaceOnUse">
<stop stop-color="#053252"/>
<stop offset="1" stop-color="#0D105A"/>
</linearGradient>
</defs>
</svg>
