<svg width="37" height="37" viewBox="0 0 37 37" fill="none" xmlns="http://www.w3.org/2000/svg">
<path opacity="0.15" d="M7.0874 35.7373C7.0874 35.9031 7.40056 36.0673 8.00898 36.2205C8.61741 36.3737 9.5092 36.5129 10.6334 36.6302C11.7577 36.7474 13.0923 36.8404 14.5612 36.9039C16.0301 36.9673 17.6044 37 19.1943 37C20.7842 37 22.3585 36.9673 23.8274 36.9039C25.2963 36.8404 26.6309 36.7474 27.7551 36.6302C28.8794 36.5129 29.7712 36.3737 30.3796 36.2205C30.988 36.0673 31.3012 35.9031 31.3012 35.7373C31.3012 35.5714 30.988 35.4072 30.3796 35.254C29.7712 35.1008 28.8794 34.9616 27.7551 34.8444C26.6309 34.7271 25.2963 34.6341 23.8274 34.5706C22.3585 34.5072 20.7842 34.4745 19.1943 34.4745C17.6044 34.4745 16.0301 34.5072 14.5612 34.5706C13.0923 34.6341 11.7577 34.7271 10.6334 34.8444C9.5092 34.9616 8.61741 35.1008 8.00898 35.254C7.40056 35.4072 7.0874 35.5714 7.0874 35.7373Z" fill="#D7DBFA"/>
<path d="M14.0095 36.0655L1.21794 23.1771C1.13906 23.114 1.07796 23.0311 1.04076 22.9367C1.00355 22.8424 0.991526 22.7398 1.00589 22.6393C1.02025 22.5388 1.06049 22.4438 1.12261 22.3639C1.18472 22.284 1.26653 22.2218 1.35989 22.1837L2.14475 21.847C2.35954 21.7796 2.58957 21.7796 2.80436 21.847L9.17509 23.1687L14.0345 28.0681L15.3621 34.4744C15.4059 34.7 15.3857 34.9334 15.3037 35.1479L14.9864 35.9308C14.949 36.0244 14.8877 36.1064 14.8087 36.1684C14.7297 36.2304 14.6359 36.2703 14.5367 36.284C14.4375 36.2977 14.3365 36.2847 14.2439 36.2463C14.1514 36.2079 14.0705 36.1455 14.0095 36.0655Z" fill="#D7DBFA"/>
<path d="M11.3794 27.5209L12.3396 26.3844L9.17509 23.1686L2.80436 21.8469C2.58366 21.7985 2.35356 21.819 2.14475 21.9058L1.35989 22.2173C1.26653 22.2554 1.18472 22.3176 1.12261 22.3975C1.06049 22.4774 1.02025 22.5724 1.00589 22.6729C0.991526 22.7734 1.00355 22.876 1.04076 22.9703C1.07796 23.0647 1.13906 23.1476 1.21794 23.2107L2.0529 24.0525H2.1531C2.36191 23.9657 2.59201 23.9451 2.81271 23.9936L9.17509 25.2732L11.3794 27.5209Z" fill="#8D8EF8"/>
<path d="M14.0104 28.0682L13.5846 27.6389L8.39111 30.4169L11.063 33.1023C11.473 33.1044 11.8811 33.0448 12.2737 32.9255C13.1899 32.6304 14.0406 32.1586 14.7785 31.5365L14.0104 28.0682Z" fill="#8D8EF8"/>
<path d="M14.0095 36.0655L1.21794 23.1771C1.13906 23.114 1.07796 23.0311 1.04076 22.9367C1.00355 22.8424 0.991526 22.7398 1.00589 22.6393C1.02025 22.5388 1.06049 22.4438 1.12261 22.3639C1.18472 22.284 1.26653 22.2218 1.35989 22.1837L2.14475 21.847C2.35954 21.7796 2.58957 21.7796 2.80436 21.847L9.17509 23.1687L14.0345 28.0681L15.3621 34.4744C15.4059 34.7 15.3857 34.9334 15.3037 35.1479L14.9864 35.9308C14.949 36.0244 14.8877 36.1064 14.8087 36.1684C14.7297 36.2304 14.6359 36.2703 14.5367 36.284C14.4375 36.2977 14.3365 36.2847 14.2439 36.2463C14.1514 36.2079 14.0705 36.1455 14.0095 36.0655Z" stroke="#45413C" stroke-width="0.5" stroke-linecap="round" stroke-linejoin="round"/>
<path d="M32.8444 20.8613L34.4975 22.528C34.7167 22.749 34.8399 23.0488 34.8399 23.3614C34.8399 23.6739 34.7167 23.9737 34.4975 24.1947L29.9455 28.7842L26.6392 25.4507L31.1913 20.8613C31.2998 20.7518 31.4287 20.665 31.5705 20.6058C31.7123 20.5466 31.8643 20.5161 32.0178 20.5161C32.1713 20.5161 32.3233 20.5466 32.4652 20.6058C32.607 20.665 32.7358 20.7518 32.8444 20.8613Z" fill="#D7DBFA" stroke="#45413C" stroke-width="0.5" stroke-linecap="round" stroke-linejoin="round"/>
<path d="M14.642 2.52151L16.2951 4.18825C16.5143 4.40927 16.6375 4.70904 16.6375 5.02162C16.6375 5.33419 16.5143 5.63396 16.2951 5.85498L11.749 10.4385L8.44275 7.10504L12.9889 2.52151C13.2081 2.30049 13.5054 2.17632 13.8154 2.17632C14.1255 2.17632 14.4228 2.30049 14.642 2.52151Z" fill="#D7DBFA" stroke="#45413C" stroke-width="0.5" stroke-linecap="round" stroke-linejoin="round"/>
<path d="M30.7586 32.614L22.91 22.512L14.6439 14.1695L4.62441 6.25628C4.46304 6.12871 4.3378 5.96058 4.26125 5.76877C4.18471 5.57696 4.15955 5.36823 4.18831 5.16352C4.21708 4.95881 4.29875 4.76534 4.42512 4.60251C4.5515 4.43969 4.71813 4.31325 4.9083 4.23589L6.50307 3.5961C6.93161 3.4192 7.40342 3.37809 7.8557 3.47824L20.8643 6.28154L30.7753 16.2909L33.5223 29.3477C33.6083 29.8058 33.5619 30.2791 33.3887 30.7114L32.7458 32.3193C32.6686 32.5081 32.5441 32.6733 32.3844 32.799C32.2248 32.9246 32.0356 33.0063 31.8352 33.036C31.6349 33.0657 31.4303 33.0424 31.2416 32.9684C31.0529 32.8944 30.8864 32.7723 30.7586 32.614Z" fill="#D7DBFA"/>
<path d="M30.0241 15.5332L30.7756 16.2824L31.7191 20.7694L25.2732 25.5594L22.9186 22.5372L22.3008 21.9227L30.0241 15.5332Z" fill="#6D6EEB"/>
<path d="M21.3744 6.80355L19.8381 8.664L7.89823 6.13851C7.44322 6.03768 6.96855 6.07878 6.53725 6.25636L5.24306 6.7783L4.65859 6.31529C4.49722 6.18772 4.37198 6.01959 4.29543 5.82778C4.21888 5.63597 4.19373 5.42724 4.22249 5.22253C4.25126 5.01782 4.33293 4.82435 4.4593 4.66153C4.58568 4.4987 4.75231 4.37226 4.94248 4.2949L6.53725 3.64669C6.9705 3.47746 7.4427 3.43657 7.89823 3.52884L20.8651 6.2732L21.3744 6.80355Z" fill="#6D6EEB"/>
<path d="M30.7586 32.614L22.91 22.512L14.6439 14.1695L4.62441 6.25628C4.46304 6.12871 4.3378 5.96058 4.26125 5.76877C4.18471 5.57696 4.15955 5.36823 4.18831 5.16352C4.21708 4.95881 4.29875 4.76534 4.42512 4.60251C4.5515 4.43969 4.71813 4.31325 4.9083 4.23589L6.50307 3.5961C6.93161 3.4192 7.40342 3.37809 7.8557 3.47824L20.8643 6.28154L30.7753 16.2909L33.5223 29.3477C33.6083 29.8058 33.5619 30.2791 33.3887 30.7114L32.7458 32.3193C32.6686 32.5081 32.5441 32.6733 32.3844 32.799C32.2248 32.9246 32.0356 33.0063 31.8352 33.036C31.6349 33.0657 31.4303 33.0424 31.2416 32.9684C31.0529 32.8944 30.8864 32.7723 30.7586 32.614Z" stroke="#45413C" stroke-width="0.5" stroke-linecap="round" stroke-linejoin="round"/>
<path d="M6.67048 27.7397L21.8166 9.37098C22.1885 8.92115 22.6117 8.51708 23.0774 8.16716C26.7846 4.93454 32.3788 2.65318 34.9087 5.20392C35.3437 5.65245 35.6571 6.20611 35.8188 6.81182C36.2029 4.92612 36.0109 3.20879 34.9087 2.09757C32.4039 -0.427916 26.7846 1.83661 23.0774 5.06923C22.6099 5.41376 22.1864 5.81527 21.8166 6.26463L6.67048 24.6586C6.15712 25.2626 5.81357 25.9942 5.67555 26.7773C5.53752 27.5604 5.61006 28.3666 5.88562 29.1119C6.06933 28.6135 6.33462 28.1497 6.67048 27.7397Z" fill="white"/>
<path d="M31.97 14.0348C35.1762 10.2971 37.4473 4.65684 34.9091 2.09768C32.3708 -0.461482 26.7849 1.83671 23.0777 5.06934C22.6102 5.41386 22.1867 5.81538 21.8169 6.26474L6.67079 24.6587C5.96566 25.4628 5.58414 26.5036 5.60113 27.5768C5.61812 28.6499 6.03241 29.6779 6.76264 30.4589C7.5371 31.1946 8.55582 31.6126 9.61969 31.6313C10.6836 31.6499 11.7161 31.2679 12.5155 30.5599L30.7844 15.2976C31.2278 14.9254 31.6258 14.5016 31.97 14.0348Z" fill="#D7DBFA"/>
<path d="M31.97 14.0348C35.1762 10.2971 37.4473 4.65684 34.9091 2.09768C32.3708 -0.461482 26.7849 1.83671 23.0777 5.06934C22.6102 5.41386 22.1867 5.81538 21.8169 6.26474L6.67079 24.6587C5.96566 25.4628 5.58414 26.5036 5.60113 27.5768C5.61812 28.6499 6.03241 29.6779 6.76264 30.4589C7.5371 31.1946 8.55582 31.6126 9.61969 31.6313C10.6836 31.6499 11.7161 31.2679 12.5155 30.5599L30.7844 15.2976C31.2278 14.9254 31.6258 14.5016 31.97 14.0348Z" stroke="#45413C" stroke-width="0.5" stroke-linecap="round" stroke-linejoin="round"/>
<path d="M31.5776 5.45669C30.8787 4.77032 30.0289 4.26007 29.0974 3.9675C28.1659 3.67492 27.179 3.60829 26.2172 3.77303L25.9333 6.29852C25.9216 6.38978 25.9313 6.48253 25.9615 6.56935C25.9918 6.65616 26.0418 6.73463 26.1075 6.79845C26.1733 6.86228 26.2529 6.9097 26.3401 6.93691C26.4273 6.96412 26.5196 6.97037 26.6096 6.95515C27.4446 6.81204 28.8055 6.82046 29.5069 7.52759C30.2083 8.23473 30.225 9.64059 30.0747 10.4572C30.0596 10.5479 30.0658 10.641 30.0928 10.7289C30.1197 10.8168 30.1668 10.8971 30.2301 10.9634C30.2934 11.0296 30.3712 11.0801 30.4573 11.1106C30.5434 11.1411 30.6354 11.1508 30.7259 11.139L33.2308 10.8528C33.3916 9.88569 33.3259 8.89405 33.0388 7.95711C32.7518 7.02017 32.2514 6.16389 31.5776 5.45669Z" fill="#6D6EEB"/>
<path d="M26.2172 3.75609L25.9333 6.28158C25.9216 6.37284 25.9313 6.46559 25.9615 6.55241C25.9918 6.63922 26.0418 6.71769 26.1075 6.78151C26.1733 6.84534 26.2529 6.89276 26.3401 6.91997C26.4273 6.94718 26.5196 6.95343 26.6096 6.93821C27.0871 6.85912 27.5729 6.84496 28.0541 6.89612L31.4941 5.33873C30.794 4.68434 29.9538 4.20121 29.0387 3.92677C28.1237 3.65232 27.1582 3.59392 26.2172 3.75609Z" fill="#C7E7FF"/>
<path d="M31.5776 5.45669C30.8787 4.77032 30.0289 4.26007 29.0974 3.9675C28.1659 3.67492 27.179 3.60829 26.2172 3.77303L25.9333 6.29852C25.9216 6.38978 25.9313 6.48253 25.9615 6.56935C25.9918 6.65616 26.0418 6.73463 26.1075 6.79845C26.1733 6.86228 26.2529 6.9097 26.3401 6.93691C26.4273 6.96412 26.5196 6.97037 26.6096 6.95515C27.4446 6.81204 28.8055 6.82046 29.5069 7.52759C30.2083 8.23473 30.225 9.64059 30.0747 10.4572C30.0596 10.5479 30.0658 10.641 30.0928 10.7289C30.1197 10.8168 30.1668 10.8971 30.2301 10.9634C30.2934 11.0296 30.3712 11.0801 30.4573 11.1106C30.5434 11.1411 30.6354 11.1508 30.7259 11.139L33.2308 10.8528C33.3916 9.88569 33.3259 8.89405 33.0388 7.95711C32.7518 7.02017 32.2514 6.16389 31.5776 5.45669V5.45669Z" stroke="#45413C" stroke-width="0.5" stroke-linecap="round" stroke-linejoin="round"/>
<path d="M31.9702 14.0349C32.9273 12.7916 33.4136 11.2451 33.3417 9.6729C33.2697 8.10071 32.6444 6.60585 31.5778 5.45668C30.4399 4.38002 28.9577 3.74919 27.3988 3.67817C25.84 3.60715 24.3074 4.10063 23.0779 5.06944" stroke="#45413C" stroke-width="0.5" stroke-linecap="round" stroke-linejoin="round"/>
<path d="M6.77993 30.4588C6.66986 30.3485 6.58251 30.2173 6.52291 30.0728C6.4633 29.9283 6.43262 29.7734 6.43262 29.6169C6.43262 29.4605 6.4633 29.3055 6.52291 29.1611C6.58251 29.0166 6.66986 28.8854 6.77993 28.7751L11.3305 24.1871C11.4401 24.0766 11.5703 23.9889 11.7135 23.9291C11.8568 23.8692 12.0103 23.8384 12.1654 23.8384C12.3205 23.8384 12.474 23.8692 12.6173 23.9291C12.7605 23.9889 12.8907 24.0766 13.0004 24.1871C13.11 24.2977 13.197 24.4289 13.2563 24.5734C13.3157 24.7178 13.3462 24.8726 13.3462 25.029C13.3462 25.1853 13.3157 25.3401 13.2563 25.4846C13.197 25.629 13.11 25.7602 13.0004 25.8708L8.44985 30.4588C8.34044 30.5697 8.21034 30.6578 8.06705 30.7179C7.92375 30.778 7.77009 30.8089 7.61489 30.8089C7.45969 30.8089 7.30603 30.778 7.16273 30.7179C7.01944 30.6578 6.88934 30.5697 6.77993 30.4588Z" fill="#6D6EEB" stroke="#45413C" stroke-width="0.5" stroke-linecap="round" stroke-linejoin="round"/>
</svg>
