<svg width="64" height="65" viewBox="0 0 64 65" fill="none" xmlns="http://www.w3.org/2000/svg">
<path d="M21.9036 40.5238H15.9725V35.173H21.9915C26.9909 35.173 27.3236 40.5238 21.9036 40.5238ZM39.894 33.3974H47.9281C47.6167 28.8319 40.6606 28.1344 39.894 33.3974ZM21.7812 24.5247H15.9725V29.8488H22.3322C26.7859 29.8488 27.4887 24.5247 21.7812 24.5247ZM63.89 13.8763V51.1455C63.89 58.4955 57.9322 64.4559 50.5796 64.4559H13.3104C5.95774 64.4559 0 58.4955 0 51.1455V13.8763C0 6.52632 5.95774 0.565918 13.3104 0.565918H50.5796C57.9322 0.565918 63.89 6.52632 63.89 13.8763ZM37.2692 21.8626H50.5796V19.2005H37.2692V21.8626ZM27.8134 31.494C32.89 28.9011 32.7037 19.3815 22.9871 19.2378H10.6483V45.8H22.1246C34.1625 45.8 33.9575 33.7301 27.8134 31.494ZM53.0686 33.0966C52.3392 28.4033 49.0009 25.2434 43.5304 25.2434C37.956 25.2434 34.6071 28.8106 34.6071 35.7507C34.6071 42.7546 38.2461 45.8213 43.7007 45.8213C49.1554 45.8213 51.9692 42.7999 52.7518 40.4972H47.1322C45.1729 42.7732 39.4308 41.8841 39.7662 36.8954H53.2363C53.2629 35.2076 53.2044 33.9963 53.0686 33.0966Z" fill="url(#paint0_linear_14_361)"/>
<defs>
<linearGradient id="paint0_linear_14_361" x1="-0.259279" y1="64.5659" x2="63.7407" y2="0.565917" gradientUnits="userSpaceOnUse">
<stop stop-color="#6C9BE0"/>
<stop offset="1" stop-color="#1B2CC7"/>
</linearGradient>
</defs>
</svg>
