<svg width="62" height="62" viewBox="0 0 62 62" fill="none" xmlns="http://www.w3.org/2000/svg">
<path d="M49.4493 37.0844L43.0929 40.864C39.4719 43.0377 35.2584 44.1933 30.9541 44.1933C26.6499 44.1933 22.4363 43.0377 18.8153 40.864L12.459 37.0844C11.7501 36.6523 11.1686 36.061 10.7676 35.3647C10.3666 34.6684 10.1589 33.8892 10.1637 33.0986V24.8521H51.7446V33.0986C51.7493 33.8892 51.5417 34.6684 51.1407 35.3647C50.7397 36.061 50.1581 36.6523 49.4493 37.0844V37.0844Z" fill="#5EA8F1"/>
<path d="M51.7445 24.8394H10.1636V31.2166L25.8484 39.793C27.3957 40.6439 29.1585 41.0926 30.9541 41.0926C32.7496 41.0926 34.5124 40.6439 36.0597 39.793L51.7445 31.2166V24.8394Z" fill="#316BC2"/>
<path d="M49.4493 37.0844L43.0929 40.864C39.4719 43.0377 35.2584 44.1933 30.9541 44.1933C26.6499 44.1933 22.4363 43.0377 18.8153 40.864L12.459 37.0844C11.7501 36.6523 11.1686 36.061 10.7676 35.3647C10.3666 34.6684 10.1589 33.8892 10.1637 33.0986V24.8521H51.7446V33.0986C51.7493 33.8892 51.5417 34.6684 51.1407 35.3647C50.7397 36.061 50.1581 36.6523 49.4493 37.0844V37.0844Z" stroke="#2C3160" stroke-linecap="round" stroke-linejoin="round"/>
<path opacity="0.15" d="M11.8262 58.6637C11.8262 59.2833 13.8414 59.8776 17.4286 60.3158C21.0157 60.754 25.881 61.0002 30.954 61.0002C36.027 61.0002 40.8923 60.754 44.4794 60.3158C48.0666 59.8776 50.0818 59.2833 50.0818 58.6637C50.0818 58.044 48.0666 57.4497 44.4794 57.0115C40.8923 56.5733 36.027 56.3271 30.954 56.3271C25.881 56.3271 21.0157 56.5733 17.4286 57.0115C13.8414 57.4497 11.8262 58.044 11.8262 58.6637V58.6637Z" fill="#316BC2"/>
<path d="M4.01265 22.8047L25.8478 34.7484C27.3977 35.5924 29.1595 36.037 30.9535 36.037C32.7474 36.037 34.5093 35.5924 36.0591 34.7484L57.8943 22.8047C58.8306 22.2957 59.6037 21.5616 60.1333 20.6788C60.6628 19.796 60.9295 18.7968 60.9054 17.7851C60.8814 16.7734 60.5676 15.7862 59.9966 14.9262C59.4256 14.0663 58.6184 13.3649 57.6589 12.8952L35.6619 2.09225C34.2112 1.37498 32.5948 1 30.9535 1C29.3121 1 27.6957 1.37498 26.2451 2.09225L4.24807 12.8952C3.28853 13.3649 2.48129 14.0663 1.91032 14.9262C1.33935 15.7862 1.02553 16.7734 1.00149 17.7851C0.977458 18.7968 1.24409 19.796 1.77366 20.6788C2.30322 21.5616 3.07637 22.2957 4.01265 22.8047V22.8047Z" fill="#316BC2"/>
<path d="M57.6592 12.8952L35.6622 2.09225C34.2116 1.37498 32.5951 1 30.9538 1C29.3125 1 27.6961 1.37498 26.2454 2.09225L4.24842 12.8952C3.5167 13.2566 2.87196 13.7541 2.35395 14.3572C1.83593 14.9602 1.45561 15.656 1.23643 16.4015C1.01724 17.1471 0.963834 17.9267 1.07949 18.6923C1.19516 19.4579 1.47744 20.1932 1.90894 20.853C2.5349 20.1581 3.34003 19.6236 4.24842 19.3L26.319 11.0535C29.3475 9.95347 32.7073 9.95347 35.7358 11.0535L57.8063 19.3C58.7147 19.6236 59.5199 20.1581 60.1458 20.853C60.572 20.1848 60.8461 19.4418 60.9513 18.6702C61.0565 17.8986 60.9903 17.1151 60.757 16.3685C60.5237 15.6218 60.1282 14.9281 59.5953 14.3305C59.0623 13.7329 58.4032 13.2443 57.6592 12.8952V12.8952Z" fill="#5EA8F1"/>
<path d="M4.01265 22.8047L25.8478 34.7484C27.3977 35.5924 29.1595 36.037 30.9535 36.037C32.7474 36.037 34.5093 35.5924 36.0591 34.7484L57.8943 22.8047C58.8306 22.2957 59.6037 21.5616 60.1333 20.6788C60.6628 19.796 60.9295 18.7968 60.9054 17.7851C60.8814 16.7734 60.5676 15.7862 59.9966 14.9262C59.4256 14.0663 58.6184 13.3649 57.6589 12.8952L35.6619 2.09225C34.2112 1.37498 32.5948 1 30.9535 1C29.3121 1 27.6957 1.37498 26.2451 2.09225L4.24807 12.8952C3.28853 13.3649 2.48129 14.0663 1.91032 14.9262C1.33935 15.7862 1.02553 16.7734 1.00149 17.7851C0.977458 18.7968 1.24409 19.796 1.77366 20.6788C2.30322 21.5616 3.07637 22.2957 4.01265 22.8047V22.8047Z" stroke="#2C3160" stroke-linecap="round" stroke-linejoin="round"/>
<path d="M28.4812 18.6816L13.7969 27.5604V47.352" stroke="#2C3160" stroke-linecap="round" stroke-linejoin="round"/>
<path d="M12.7829 50.1831L10.1786 57.5087C10.0313 57.8825 10.0176 58.2907 10.1396 58.6724C10.2616 59.054 10.5128 59.3883 10.8554 59.6253C11.704 60.2265 12.7335 60.563 13.7982 60.5874C14.8625 60.5612 15.8914 60.2248 16.7409 59.6253C17.0774 59.39 17.3246 59.0604 17.4464 58.6845C17.5681 58.3087 17.5581 57.9064 17.4178 57.5362L14.7693 50.1831H12.7829Z" fill="url(#paint0_linear_14_221)" stroke="#2C3160" stroke-linecap="round" stroke-linejoin="round"/>
<path d="M10.7661 50.1834C10.7661 50.9343 11.0855 51.6544 11.6539 52.1854C12.2223 52.7164 12.9933 53.0146 13.7971 53.0146C14.601 53.0146 15.372 52.7164 15.9404 52.1854C16.5088 51.6544 16.8282 50.9343 16.8282 50.1834C16.8282 49.4324 16.5088 48.7123 15.9404 48.1813C15.372 47.6503 14.601 47.3521 13.7971 47.3521C12.9933 47.3521 12.2223 47.6503 11.6539 48.1813C11.0855 48.7123 10.7661 49.4324 10.7661 50.1834V50.1834Z" fill="url(#paint1_linear_14_221)" stroke="#2C3160" stroke-linecap="round" stroke-linejoin="round"/>
<path d="M34.985 17.1837C34.985 18.2283 33.1899 19.0667 30.9534 19.0667C28.7169 19.0667 26.9219 18.2283 26.9219 17.1837C26.9219 16.1392 28.7169 15.3008 30.9534 15.3008C33.1899 15.3008 34.985 16.1392 34.985 17.1837Z" fill="url(#paint2_linear_14_221)" stroke="#2C3160" stroke-linecap="round" stroke-linejoin="round"/>
<defs>
<linearGradient id="paint0_linear_14_221" x1="13.794" y1="50.1831" x2="13.794" y2="60.5874" gradientUnits="userSpaceOnUse">
<stop stop-color="#5981BC"/>
<stop offset="1" stop-color="#0A189A"/>
</linearGradient>
<linearGradient id="paint1_linear_14_221" x1="13.7971" y1="47.3521" x2="13.7971" y2="53.0146" gradientUnits="userSpaceOnUse">
<stop stop-color="#5981BC"/>
<stop offset="1" stop-color="#0A189A"/>
</linearGradient>
<linearGradient id="paint2_linear_14_221" x1="30.9534" y1="15.3008" x2="30.9534" y2="19.0667" gradientUnits="userSpaceOnUse">
<stop stop-color="#5981BC"/>
<stop offset="1" stop-color="#0A189A"/>
</linearGradient>
</defs>
</svg>
