<svg width="623" height="729" viewBox="0 0 623 729" fill="none" xmlns="http://www.w3.org/2000/svg">
<path d="M509.696 613.702L511.803 648.742C511.803 648.742 534.75 662.78 573.3 658.408C573.665 658.378 574.015 658.272 574.315 658.102C574.616 657.932 574.857 657.702 575.017 657.436C575.177 657.169 575.25 656.874 575.228 656.578C575.207 656.282 575.092 655.996 574.895 655.746C572.703 652.897 567.259 647.789 554.384 642.858L545.408 616.561L509.696 613.702Z" fill="#251B65"/>
<path d="M546.297 616.629L496.359 616.982L469.002 404.611L466.518 384.07L525.445 385.367L546.297 616.629Z" fill="#371453"/>
<path d="M468.539 619.124L418.601 615.067L422.779 396.88L423.644 389.975L478.003 393.226L468.539 619.124Z" fill="#371453"/>
<path d="M465.689 618.898L467.797 653.978C467.797 653.978 441.841 664.037 405.143 653.555C404.806 653.459 404.504 653.297 404.264 653.084C404.025 652.871 403.854 652.613 403.768 652.334C403.683 652.054 403.684 651.762 403.773 651.483C403.862 651.204 404.036 650.947 404.278 650.736C407.128 648.31 413.73 644.174 427.566 641.414L431.439 616.158L465.689 618.898Z" fill="#251B65"/>
<path d="M525.932 390.466C525.916 391.369 525.465 392.231 524.673 392.87C523.881 393.508 522.812 393.872 521.693 393.885L503.423 394.042C496.931 394.091 484.946 397.775 480.025 396.793C475.105 395.81 462.9 395.398 457.906 394.995C452.913 394.592 431.659 391.704 428.881 390.899C428.092 390.677 427.275 390.525 426.445 390.447C425.369 390.334 424.385 389.898 423.69 389.227C422.995 388.555 422.639 387.696 422.694 386.822L423.315 376.999L526.175 379.032L525.932 390.466Z" fill="#2C0948"/>
<path d="M478.62 254.003C478.62 254.003 541.578 259.085 537.84 282.539C534.102 305.992 524.953 385.205 524.953 385.205C498.824 389.572 480.281 389.024 477.85 388.926C477.85 388.926 449.962 390.111 423.638 381.033C423.638 381.033 417.909 300.038 415.088 276.634C412.266 253.229 478.62 254.003 478.62 254.003Z" fill="#011C3C"/>
<path d="M530.694 334.404C530.694 334.404 533.386 367.99 534.592 375.662C535.237 379.798 526.066 386.595 517.308 387.047C508.551 387.499 493.862 394.297 480.062 390.977C466.262 387.656 461.548 391.753 451.39 389.817C440.83 387.794 434.265 388.423 430.197 386.35C426.129 384.277 413.729 379.778 417.59 366.143C421.451 352.508 419.807 329.551 419.807 329.551L475.275 319.679L530.694 334.404Z" fill="#011C3C"/>
<path d="M487 239.367L486.556 259.432C486.538 260.11 486.32 260.772 485.921 261.358C485.523 261.944 484.958 262.434 484.278 262.783C481.761 264.068 476.807 265.559 467.878 264.789C462.183 264.292 458.698 263.474 456.648 262.646C455.692 262.255 454.921 261.597 454.461 260.781C454.002 259.965 453.881 259.039 454.119 258.156L459.7 237L487 239.367Z" fill="#ED6E83"/>
<path d="M446.214 235.748C448.564 228.872 449.6 217.879 449.6 217.879C449.738 213.126 452.213 208.612 456.479 205.33C460.744 202.048 466.452 200.267 472.346 200.379C478.239 200.491 483.837 202.487 487.906 205.927C491.975 209.368 494.183 213.971 494.044 218.724C495.725 234.952 483.18 246.858 483.18 246.858C483.18 246.858 469.965 257.605 457.163 253.892C444.362 250.179 443.863 242.644 446.214 235.748Z" fill="#FF7C8D"/>
<path d="M488.953 228.832L486.773 209.961C486.743 209.841 486.677 209.728 486.578 209.634C486.48 209.539 486.354 209.467 486.212 209.423C486.069 209.378 485.915 209.364 485.764 209.381C485.613 209.398 485.47 209.446 485.348 209.519C483.131 210.865 474.154 211.975 464.045 211.405C448.54 210.541 449.904 201.582 449.904 201.582C449.904 201.582 449.989 181.631 472.644 194.028C472.644 194.028 497.857 190.747 491.535 206.533C491.535 206.533 506.724 202.191 496.846 221.091C496.846 221.091 502.132 220.728 496.578 230.345L495.262 226.268L494.665 229.137C494.435 229.664 493.981 230.11 493.385 230.395C492.788 230.681 492.086 230.788 491.401 230.698L493.581 229.588C492.363 229.431 489.209 229.805 488.953 228.832Z" fill="black"/>
<path d="M492.729 227.3C492.919 226.74 493.366 226.26 493.979 225.957C494.592 225.654 495.326 225.551 496.03 225.669C497.723 225.993 499.538 227.212 499.428 230.974C499.221 237.909 489.209 237.143 489.209 237.143L492.729 227.3Z" fill="#FF7C8D"/>
<path d="M449.6 217.88C449.6 217.88 449.015 213.243 446.019 217.821C443.022 222.398 449.246 230.021 449.246 230.021L449.6 217.88Z" fill="#FF7C8D"/>
<path d="M455.275 208.134L450.915 221.956H449.124C449.124 221.956 446.688 210.924 453.059 206.12C459.429 201.317 455.275 208.134 455.275 208.134Z" fill="black"/>
<path d="M517.649 384.729C517.649 384.729 514.933 389.16 520.646 389.641L527.954 390.231C528.117 390.246 528.281 390.215 528.419 390.143C528.557 390.072 528.659 389.964 528.709 389.838C528.892 389.525 528.996 389.186 529.016 388.841C529.036 388.496 528.971 388.151 528.825 387.826C528.679 387.501 528.455 387.202 528.165 386.947C527.876 386.692 527.526 386.486 527.138 386.341" fill="#FF7C8D"/>
<path d="M537.137 360.741C537.137 360.741 522.375 363.609 516.589 369.533C510.804 375.456 512.655 377.932 512.655 377.932C512.655 377.932 516.212 387.932 525.493 386.773L546.881 380.712L537.137 360.741Z" fill="#FF7C8D"/>
<path d="M513.221 377.993C513.329 378.002 513.438 377.993 513.541 377.966C513.645 377.939 513.74 377.896 513.822 377.839L519.725 373.467C519.796 373.41 519.852 373.343 519.891 373.269C519.929 373.194 519.949 373.115 519.949 373.034C519.949 372.954 519.929 372.874 519.891 372.8C519.852 372.726 519.796 372.659 519.725 372.602C519.581 372.489 519.388 372.426 519.187 372.426C518.986 372.426 518.793 372.489 518.649 372.602L512.745 376.973C512.674 377.03 512.618 377.097 512.58 377.172C512.541 377.246 512.521 377.326 512.521 377.406C512.521 377.486 512.541 377.566 512.58 377.64C512.618 377.714 512.674 377.782 512.745 377.839C512.873 377.937 513.044 377.993 513.221 377.993Z" fill="#D94C82"/>
<path d="M515.077 381.735C515.271 381.749 515.465 381.709 515.626 381.62L521.446 378.27C521.618 378.169 521.735 378.018 521.771 377.849C521.806 377.679 521.758 377.505 521.637 377.365C521.575 377.295 521.497 377.237 521.407 377.192C521.317 377.147 521.218 377.117 521.113 377.104C521.009 377.09 520.903 377.094 520.8 377.114C520.697 377.134 520.601 377.17 520.515 377.22L514.696 380.561C514.609 380.61 514.535 380.672 514.478 380.744C514.422 380.816 514.384 380.897 514.366 380.981C514.348 381.065 514.351 381.151 514.375 381.234C514.399 381.318 514.443 381.396 514.505 381.466C514.572 381.54 514.657 381.603 514.756 381.649C514.854 381.695 514.964 381.725 515.077 381.735Z" fill="#D94C82"/>
<path d="M517.884 384.522C518.055 384.53 518.225 384.501 518.375 384.44L524.154 381.957C524.343 381.875 524.481 381.741 524.538 381.583C524.595 381.425 524.568 381.257 524.46 381.115C524.406 381.045 524.333 380.984 524.247 380.935C524.161 380.886 524.062 380.85 523.957 380.829C523.852 380.809 523.743 380.804 523.636 380.816C523.528 380.827 523.425 380.854 523.332 380.895L517.553 383.368C517.364 383.45 517.226 383.585 517.169 383.742C517.111 383.9 517.139 384.068 517.246 384.211C517.314 384.295 517.407 384.367 517.517 384.421C517.628 384.475 517.753 384.51 517.884 384.522Z" fill="#D94C82"/>
<path d="M524.862 387.523C524.957 387.544 525.056 387.544 525.151 387.523L527.255 387.032C527.358 387.009 527.454 386.968 527.539 386.912C527.623 386.857 527.693 386.788 527.746 386.709C527.798 386.63 527.832 386.543 527.845 386.453C527.857 386.362 527.849 386.271 527.82 386.184C527.758 386.01 527.62 385.863 527.434 385.773C527.248 385.684 527.029 385.659 526.822 385.703L524.718 386.204C524.515 386.254 524.343 386.37 524.24 386.527C524.136 386.684 524.109 386.869 524.165 387.043C524.209 387.174 524.3 387.291 524.425 387.377C524.549 387.463 524.702 387.514 524.862 387.523Z" fill="#D94C82"/>
<path d="M552.496 380.465L613.738 359.581C616.236 358.407 618.363 356.781 619.948 354.83C621.533 352.88 622.535 350.658 622.872 348.342C623.21 346.026 622.876 343.678 621.895 341.484C620.914 339.29 619.314 337.31 617.221 335.7L532.801 270.287C532.801 270.287 529.038 275.788 526.882 287.242C524.726 298.696 532.351 312.674 532.351 312.674L581.071 343.942L540.012 358.412C538.909 358.79 537.93 359.369 537.153 360.103C536.375 360.838 535.819 361.708 535.53 362.646C534.872 364.807 535.006 368.019 537.88 372.4C539.478 375.023 541.644 377.395 544.275 379.404C545.384 380.186 546.743 380.7 548.197 380.887C549.651 381.075 551.141 380.929 552.496 380.465Z" fill="#011C3C"/>
<path d="M456.335 227.467C457.324 227.467 458.125 226.821 458.125 226.023C458.125 225.226 457.324 224.579 456.335 224.579C455.346 224.579 454.544 225.226 454.544 226.023C454.544 226.821 455.346 227.467 456.335 227.467Z" fill="black"/>
<path d="M476.81 230.875C477.799 230.875 478.6 230.229 478.6 229.431C478.6 228.634 477.799 227.987 476.81 227.987C475.821 227.987 475.019 228.634 475.019 229.431C475.019 230.229 475.821 230.875 476.81 230.875Z" fill="black"/>
<path d="M460.708 223.184C461.261 223.229 461.816 223.101 462.256 222.827C462.697 222.553 462.992 222.153 463.079 221.71C463.166 221.266 463.04 220.813 462.726 220.442C462.411 220.072 461.934 219.812 461.39 219.716C458.752 219.231 456.056 218.981 453.351 218.97C452.773 219 452.233 219.214 451.85 219.565C451.468 219.916 451.274 220.375 451.311 220.841C451.348 221.307 451.613 221.743 452.048 222.051C452.483 222.36 453.053 222.516 453.631 222.486C455.931 222.52 458.221 222.744 460.464 223.154C460.543 223.175 460.625 223.185 460.708 223.184Z" fill="black"/>
<path d="M481.329 225.444C481.873 225.471 482.411 225.334 482.837 225.059C483.263 224.783 483.546 224.39 483.631 223.955C483.717 223.521 483.598 223.076 483.298 222.708C482.998 222.34 482.539 222.076 482.011 221.966C479.372 221.487 476.677 221.24 473.972 221.229C473.686 221.243 473.405 221.302 473.147 221.404C472.889 221.505 472.658 221.647 472.468 221.82C472.278 221.993 472.132 222.195 472.039 222.414C471.946 222.633 471.908 222.865 471.926 223.096C471.966 223.562 472.233 223.997 472.669 224.306C473.104 224.615 473.673 224.773 474.252 224.746C476.549 224.774 478.835 224.998 481.073 225.414L481.329 225.444Z" fill="black"/>
<path d="M461.317 241.584C463.789 241.746 466.278 241.584 468.685 241.102C468.825 241.077 468.947 241.008 469.024 240.91C469.102 240.813 469.129 240.695 469.1 240.582C469.065 240.468 468.977 240.37 468.854 240.308C468.732 240.246 468.584 240.224 468.442 240.248C457.894 242.163 454.946 238.195 454.91 238.146C454.837 238.044 454.717 237.97 454.577 237.939C454.437 237.909 454.287 237.925 454.161 237.983C454.035 238.042 453.943 238.139 453.905 238.252C453.868 238.365 453.887 238.486 453.96 238.588C454.057 238.725 455.86 241.142 461.317 241.584Z" fill="black"/>
<path d="M463.875 235.335C464.373 235.379 464.875 235.379 465.373 235.335C465.444 235.332 465.513 235.316 465.577 235.29C465.64 235.264 465.697 235.228 465.742 235.184C465.788 235.14 465.822 235.089 465.842 235.034C465.862 234.979 465.868 234.921 465.86 234.864C465.854 234.806 465.834 234.749 465.8 234.697C465.767 234.646 465.721 234.6 465.666 234.562C465.61 234.525 465.546 234.497 465.477 234.479C465.408 234.462 465.335 234.456 465.263 234.461C462.827 234.658 462.023 233.832 461.792 233.479C464.228 230.64 465.665 224.775 465.726 224.52C465.751 224.405 465.719 224.287 465.637 224.192C465.555 224.096 465.429 224.03 465.288 224.009C465.148 223.991 465.005 224.017 464.887 224.08C464.77 224.144 464.686 224.242 464.654 224.353C464.654 224.422 463.144 230.561 460.744 233.194C460.696 233.243 460.662 233.3 460.645 233.362C460.628 233.423 460.629 233.486 460.647 233.547C460.884 234.081 461.324 234.541 461.903 234.861C462.482 235.182 463.172 235.348 463.875 235.335Z" fill="#D94C82"/>
<path d="M475.19 451.617C475.19 451.617 470.829 430.3 468.832 429.023C466.834 427.746 460.306 445.723 464.313 453.65C468.32 461.578 469.368 470.92 468.868 474.947C468.369 478.975 473.813 484.466 473.813 484.466L475.19 451.617Z" fill="#2C0948"/>
<path d="M466.794 266.774C467.378 266.774 467.986 266.858 468.57 266.886C478.105 267.368 484.528 266.275 487.766 263.635C488.97 262.709 489.707 261.461 489.835 260.131L491.021 255.904L486.861 255.148L485.508 259.908L485.509 260.089C485.363 260.601 485.007 261.061 484.497 261.394C483.128 262.404 479.245 264.027 468.792 263.498C460.366 263.072 457.205 261.24 456.047 259.776C455.651 259.247 455.407 258.654 455.332 258.041C455.257 257.427 455.353 256.808 455.613 256.227L451.667 254.91C451.143 255.99 450.935 257.152 451.058 258.306C451.181 259.46 451.633 260.576 452.379 261.57C454.694 264.431 459.524 266.194 466.794 266.774Z" fill="#061F50"/>
<path d="M523.8 306.23C523.8 306.23 519.221 325.612 524.202 331.83C529.184 338.048 528.429 344.178 531.011 346.565V334.777L532.302 312.792L523.8 306.23Z" fill="#011C3C"/>
<path d="M427.347 299.521C427.256 303.395 426.535 307.243 425.203 310.966C423.12 316.035 422.694 325.298 420.051 329.149L417.907 306.034L427.347 299.521Z" fill="#011C3C"/>
<path d="M311.6 277.183C311.6 277.183 305.985 267.192 297.617 263.823C289.25 260.454 292.94 267.959 292.94 267.959C292.94 267.959 290.09 266.328 285.206 267.33C280.322 268.332 273.403 271.996 275.06 275.542L289.408 289.531L311.6 277.183Z" fill="#FF7C8D"/>
<path d="M260.017 274.855C268.97 276.054 284.378 283.245 284.378 283.245L276.266 275.121C266.29 272.233 257.789 271.643 257.557 272.39C257.557 272.39 256.412 273.372 257.082 274.079C257.752 274.787 260.017 274.855 260.017 274.855Z" fill="#FF7C8D"/>
<path d="M276.643 275.67C256.79 271.171 259.092 269.491 259.092 269.491C259.433 267.242 279.737 271.171 279.737 271.171L276.643 275.67Z" fill="#FF7C8D"/>
<path d="M281.357 272.468C261.503 267.969 262.526 265.592 262.526 265.592C262.867 263.342 285.169 268.097 285.169 268.097L281.357 272.468Z" fill="#FF7C8D"/>
<path d="M293.537 265.778C293.537 265.778 271.735 258.164 267.399 261.534C264.305 263.99 293.537 270.021 293.537 270.021V265.778Z" fill="#FF7C8D"/>
<path d="M288.897 257.428C288.897 257.428 289.25 264.717 291.954 267.124C294.658 269.531 303.464 267.438 303.464 267.438C303.464 267.438 293.013 256.367 290.504 256.161C288.836 256.033 288.897 257.428 288.897 257.428Z" fill="#FF7C8D"/>
<path d="M286.119 268.813C286.071 268.822 286.021 268.822 285.973 268.813C281.555 267.555 276.981 266.689 272.331 266.229C272.198 266.206 272.081 266.144 272.001 266.055C271.922 265.966 271.886 265.857 271.901 265.748C271.917 265.639 271.981 265.538 272.083 265.466C272.185 265.393 272.317 265.354 272.453 265.355C277.192 265.823 281.852 266.709 286.351 267.998C286.486 268.039 286.596 268.123 286.655 268.23C286.714 268.336 286.719 268.458 286.667 268.567C286.618 268.648 286.539 268.716 286.441 268.759C286.343 268.803 286.231 268.822 286.119 268.813Z" fill="#EA5E94"/>
<path d="M281.247 272.9C281.16 272.895 281.076 272.871 281.004 272.831C276.266 270.385 269.506 269.884 269.445 269.884C269.314 269.862 269.197 269.801 269.118 269.714C269.038 269.627 269.001 269.52 269.013 269.412C269.025 269.304 269.085 269.204 269.183 269.13C269.28 269.056 269.408 269.013 269.542 269.01C269.847 269.01 276.643 269.501 281.613 272.065C281.674 272.096 281.726 272.136 281.768 272.184C281.809 272.232 281.838 272.285 281.852 272.342C281.867 272.399 281.868 272.458 281.854 272.515C281.84 272.572 281.812 272.626 281.771 272.674C281.722 272.75 281.646 272.812 281.553 272.853C281.459 272.893 281.353 272.909 281.247 272.9Z" fill="#EA5E94"/>
<path d="M277.606 276.191C277.523 276.183 277.444 276.159 277.374 276.122C273.72 274.256 263.976 272.753 263.867 272.743C263.79 272.739 263.715 272.721 263.647 272.692C263.578 272.663 263.519 272.622 263.471 272.573C263.424 272.524 263.39 272.468 263.372 272.407C263.353 272.347 263.351 272.284 263.365 272.223C263.379 272.162 263.408 272.103 263.452 272.052C263.495 272.001 263.552 271.958 263.618 271.925C263.683 271.893 263.757 271.872 263.833 271.864C263.91 271.856 263.988 271.861 264.061 271.878C264.476 271.937 274.098 273.421 277.947 275.385C278.045 275.44 278.119 275.519 278.156 275.611C278.194 275.702 278.193 275.801 278.155 275.892C278.116 275.984 278.041 276.062 277.942 276.116C277.843 276.17 277.725 276.196 277.606 276.191Z" fill="#EA5E94"/>
<path d="M294.877 268.823C293.509 268.769 292.212 268.319 291.223 267.556C290.332 266.787 289.829 265.779 289.81 264.727C289.816 264.61 289.878 264.5 289.982 264.42C290.087 264.339 290.226 264.294 290.37 264.294C290.442 264.296 290.513 264.308 290.579 264.332C290.645 264.355 290.704 264.389 290.754 264.431C290.804 264.473 290.843 264.522 290.869 264.576C290.895 264.631 290.908 264.688 290.906 264.746C290.926 265.565 291.321 266.349 292.014 266.947C292.547 267.326 293.169 267.613 293.843 267.792C294.517 267.971 295.229 268.038 295.936 267.988C296.008 267.987 296.079 267.997 296.145 268.018C296.212 268.039 296.272 268.071 296.323 268.111C296.374 268.151 296.415 268.199 296.443 268.253C296.47 268.306 296.484 268.363 296.484 268.42C296.488 268.478 296.476 268.536 296.451 268.59C296.425 268.644 296.386 268.694 296.336 268.735C296.286 268.777 296.225 268.809 296.159 268.831C296.092 268.853 296.02 268.864 295.949 268.862C295.591 268.868 295.233 268.855 294.877 268.823Z" fill="#EA5E94"/>
<path d="M289.664 288.018C290.882 286.25 293.403 283.981 298.433 281.27C304.133 278.205 308.068 277.232 310.686 277.085C311.774 277.038 312.859 277.217 313.836 277.606C314.813 277.995 315.649 278.58 316.265 279.305L361.989 328.766L398.736 278.156C414.46 263.47 431.317 259.737 431.317 259.737C455.117 273.951 442.279 286.044 442.279 286.044L378.651 355.711C377.121 357.689 375.042 359.352 372.579 360.57C370.115 361.789 367.333 362.528 364.454 362.73C361.575 362.932 358.677 362.591 355.989 361.734C353.302 360.878 350.898 359.529 348.968 357.794L290.078 293.46C289.382 292.676 288.975 291.75 288.902 290.787C288.828 289.825 289.092 288.865 289.664 288.018Z" fill="#011C3C"/>
<path d="M361.745 339.404L363.889 339.257C363.341 333.952 362.098 328.756 362.086 328.707L359.979 329.041C359.979 329.041 361.148 334.198 361.745 339.404Z" fill="#B5E8D6"/>
<g filter="url(#filter0_d_16_65)">
<path d="M338.28 56.4518L143.452 41.218C135.947 40.6293 128.361 41.2363 121.187 42.9998C114.012 44.7633 107.409 47.6439 101.804 51.455C96.1993 55.2662 91.7183 59.9229 88.6513 65.1236C85.5843 70.3243 83.9996 75.953 84 81.645V652.348C84.0002 658.208 85.6798 663.999 88.9239 669.323C92.1679 674.648 96.8997 679.381 102.795 683.197C108.69 687.014 115.61 689.823 123.079 691.434C130.548 693.045 138.391 693.418 146.069 692.529L345.285 669.438C358.01 667.967 369.617 663.106 378.003 655.737C386.389 648.368 390.999 638.978 391 629.266V100.562C390.997 89.5936 385.608 79.0149 375.871 70.8686C366.135 62.7222 352.742 57.586 338.28 56.4518V56.4518Z" fill="#153E7C"/>
</g>
<path d="M349.699 56.4619L167.449 41.2259C160.429 40.637 153.334 41.2441 146.623 43.0079C139.913 44.7717 133.736 47.6529 128.494 51.4648C123.252 55.2767 119.062 59.9342 116.194 65.1357C113.326 70.3371 111.846 75.9664 111.848 81.6588V652.445C111.848 658.306 113.419 664.098 116.454 669.423C119.488 674.749 123.915 679.482 129.429 683.299C134.944 687.116 141.416 689.926 148.404 691.537C155.391 693.148 162.727 693.522 169.91 692.633L356.264 669.538C368.166 668.064 379.021 663.202 386.862 655.832C394.704 648.463 399.016 639.072 399.016 629.36V100.579C399.016 89.608 393.975 79.0265 384.867 70.8785C375.758 62.7305 363.229 57.5942 349.699 56.4619Z" fill="#EFD82E"/>
<path d="M349.699 56.4619L167.449 41.2259C160.429 40.637 153.334 41.2441 146.623 43.0079C139.913 44.7717 133.736 47.6529 128.494 51.4648C123.252 55.2767 119.062 59.9342 116.194 65.1357C113.326 70.3371 111.846 75.9664 111.848 81.6588V652.445C111.848 658.306 113.419 664.098 116.454 669.423C119.488 674.749 123.915 679.482 129.429 683.299C134.944 687.116 141.416 689.926 148.404 691.537C155.391 693.148 162.727 693.522 169.91 692.633L356.264 669.538C368.166 668.064 379.021 663.202 386.862 655.832C394.704 648.463 399.016 639.072 399.016 629.36V100.579C399.016 89.608 393.975 79.0265 384.867 70.8785C375.758 62.7305 363.229 57.5942 349.699 56.4619Z" fill="#1C4B92"/>
<g filter="url(#filter1_d_16_65)">
<path d="M162.78 48.4277C164.229 48.4311 165.676 48.4934 167.116 48.6144L349.366 63.8602C360.65 64.7839 371.104 69.0577 378.699 75.851C386.294 82.6444 390.486 91.4722 390.461 100.619V565.608C390.508 573.565 386.996 581.269 380.572 587.307C374.147 593.346 365.239 597.315 355.48 598.487L169.126 621.572C163.248 622.306 157.243 622.006 151.523 620.691C145.803 619.375 140.504 617.076 135.99 613.952C131.476 610.828 127.855 606.953 125.375 602.592C122.895 598.232 121.615 593.49 121.624 588.693V81.6995C121.624 72.8905 125.955 64.4411 133.668 58.204C141.381 51.9669 151.846 48.4511 162.768 48.4277" fill="#F0F0F0"/>
</g>
<path d="M222.357 77.2288L298.409 82.3566C299.627 82.3566 300.614 81.0894 300.614 79.4096C300.614 77.7298 299.627 76.2858 298.409 76.1777L222.32 70.7159C218.874 70.4114 215.999 70.657 215.999 73.5745C216.036 76.4823 218.91 77.1011 222.357 77.2288Z" fill="#4477C3"/>
<path d="M305.486 82.6216C306.57 82.6216 307.435 81.4232 307.435 79.8416C307.435 78.2699 306.57 76.8946 305.486 76.816C304.377 76.7178 303.464 77.9555 303.464 79.5862C303.464 81.2758 304.377 82.5823 305.486 82.6216Z" fill="#4477C3"/>
<path d="M94.5519 147.328H100.264C102.06 147.328 103.516 146.154 103.516 144.705V108.064C103.516 106.616 102.06 105.441 100.264 105.441H94.5519C92.7558 105.441 91.2998 106.616 91.2998 108.064V144.705C91.2998 146.154 92.7558 147.328 94.5519 147.328Z" fill="#BEBFFF"/>
<path d="M273.184 665.874C288.609 665.874 301.113 655.789 301.113 643.349C301.113 630.908 288.609 620.824 273.184 620.824C257.76 620.824 245.255 630.908 245.255 643.349C245.255 655.789 257.76 665.874 273.184 665.874Z" fill="#4477C4"/>
<path d="M100.216 455.998C100.216 455.998 102.359 460.615 96.5615 460.615H89.2535C89.0906 460.618 88.9313 460.576 88.8025 460.495C88.6738 460.415 88.5835 460.301 88.5471 460.172C88.4027 459.846 88.3399 459.5 88.3623 459.154C88.3847 458.808 88.4919 458.469 88.6776 458.157C88.8634 457.845 89.124 457.565 89.4444 457.334C89.7648 457.104 90.1388 456.926 90.5446 456.813" fill="#FF7C8D"/>
<path d="M83.7239 430.546C83.7239 430.546 98.0598 434.593 103.078 440.959C108.096 447.324 105.965 449.652 105.965 449.652C105.965 449.652 101.178 459.319 92.1038 457.373L71.5317 449.652L83.7239 430.546Z" fill="#FF7C8D"/>
<path d="M105.965 450.291C105.848 450.292 105.732 450.274 105.625 450.236C105.518 450.199 105.422 450.144 105.343 450.075L99.6067 444.868C99.4968 444.735 99.4501 444.574 99.4751 444.415C99.5 444.256 99.595 444.11 99.7427 444.003C99.8903 443.895 100.081 443.835 100.279 443.831C100.478 443.828 100.672 443.882 100.825 443.984L106.561 449.191C106.643 449.257 106.706 449.335 106.747 449.422C106.788 449.509 106.805 449.602 106.799 449.695C106.792 449.788 106.76 449.879 106.707 449.961C106.653 450.043 106.579 450.116 106.488 450.173C106.338 450.263 106.151 450.305 105.965 450.291Z" fill="#EA5E94"/>
<path d="M103.906 453.306C103.709 453.302 103.52 453.243 103.37 453.139L97.8773 449.259C97.7266 449.141 97.6382 448.98 97.6307 448.811C97.6231 448.641 97.6968 448.476 97.8366 448.35C97.9763 448.223 98.1713 448.145 98.3808 448.131C98.5903 448.117 98.7983 448.17 98.9613 448.277L104.454 452.206C104.536 452.263 104.602 452.333 104.65 452.411C104.697 452.489 104.725 452.573 104.732 452.66C104.739 452.747 104.724 452.834 104.689 452.916C104.654 452.998 104.599 453.074 104.528 453.139C104.444 453.2 104.345 453.246 104.238 453.274C104.131 453.303 104.019 453.314 103.906 453.306Z" fill="#EA5E94"/>
<path d="M100.216 456.587C100.041 456.584 99.8718 456.54 99.7285 456.459L94.3571 453.345C94.2695 453.295 94.1952 453.231 94.1386 453.157C94.0819 453.083 94.044 453 94.027 452.914C94.0101 452.829 94.0143 452.741 94.0396 452.656C94.0649 452.572 94.1107 452.492 94.1744 452.422C94.2361 452.352 94.3146 452.292 94.4053 452.247C94.4959 452.201 94.5969 452.17 94.7024 452.157C94.8079 452.143 94.9157 452.146 95.0195 452.167C95.1233 452.187 95.2211 452.224 95.3071 452.275L100.691 455.389C100.778 455.439 100.853 455.504 100.909 455.578C100.966 455.652 101.004 455.734 101.021 455.82C101.038 455.906 101.033 455.993 101.008 456.078C100.983 456.162 100.937 456.242 100.873 456.312C100.798 456.396 100.699 456.465 100.585 456.512C100.471 456.56 100.344 456.586 100.216 456.587Z" fill="#EA5E94"/>
<path d="M92.6498 458.008C92.5492 458.006 92.4498 457.99 92.3564 457.961L90.2905 457.359C90.0863 457.3 89.9213 457.182 89.8319 457.031C89.7425 456.88 89.7359 456.708 89.8138 456.553C89.8916 456.398 90.0473 456.273 90.2468 456.206C90.4462 456.138 90.673 456.133 90.8773 456.192L92.9554 456.803C93.1563 456.865 93.3173 456.984 93.404 457.135C93.4908 457.285 93.4965 457.456 93.42 457.609C93.3603 457.727 93.2546 457.829 93.117 457.9C92.9794 457.971 92.8164 458.009 92.6498 458.008Z" fill="#EA5E94"/>
<path d="M66.014 448.934L7.68392 423.207C5.34669 421.837 3.4362 420.047 2.10317 417.98C0.770139 415.912 0.0510445 413.623 0.0026195 411.293C-0.0458056 408.963 0.577764 406.656 1.82413 404.554C3.0705 402.451 4.90556 400.611 7.18454 399.179L99.2899 340.917C99.2899 340.917 102.311 346.702 103.078 358.294C103.845 369.886 94.4788 383.157 94.4788 383.157L42.129 410.358L81.1904 428.04C82.2401 428.503 83.142 429.157 83.8248 429.95C84.5075 430.743 84.9525 431.653 85.1245 432.608C85.5143 434.818 84.9783 438.011 81.5679 442.136C79.6429 444.613 77.1796 446.79 74.2964 448.561C73.0977 449.242 71.6858 449.639 70.2215 449.705C68.7573 449.771 67.2994 449.504 66.014 448.934Z" fill="#332680"/>
<path d="M192.613 455.998C192.613 455.998 190.469 460.615 196.194 460.615H203.502C203.664 460.619 203.823 460.578 203.95 460.497C204.077 460.416 204.165 460.301 204.196 460.172C204.428 459.298 204.623 457.432 202.211 456.813" fill="#FF7C8D"/>
<path d="M207.668 431.125C207.668 431.125 194.769 434.593 189.751 440.948C184.733 447.304 186.876 449.622 186.876 449.622C186.876 449.622 191.651 459.289 200.737 457.344L220.579 450.202L207.668 431.125Z" fill="#FF7C8D"/>
<path d="M186.877 450.29C186.778 450.292 186.68 450.279 186.588 450.25C186.496 450.221 186.412 450.178 186.341 450.123C186.25 450.066 186.176 449.993 186.122 449.911C186.069 449.829 186.037 449.738 186.031 449.645C186.024 449.552 186.041 449.459 186.082 449.373C186.123 449.286 186.186 449.207 186.268 449.141L192.004 443.934C192.078 443.863 192.168 443.805 192.271 443.764C192.373 443.723 192.486 443.699 192.6 443.694C192.714 443.69 192.829 443.704 192.936 443.737C193.043 443.77 193.141 443.82 193.222 443.885C193.299 443.946 193.359 444.019 193.4 444.099C193.442 444.179 193.463 444.265 193.463 444.352C193.463 444.439 193.442 444.525 193.4 444.605C193.359 444.685 193.299 444.757 193.222 444.819L187.486 450.025C187.416 450.103 187.324 450.168 187.219 450.214C187.113 450.26 186.996 450.286 186.877 450.29Z" fill="#EA5E94"/>
<path d="M188.91 453.306C188.743 453.307 188.579 453.267 188.441 453.19C188.303 453.113 188.198 453.004 188.139 452.878C188.081 452.751 188.072 452.613 188.114 452.482C188.156 452.352 188.247 452.235 188.375 452.147L193.868 448.218C193.947 448.156 194.04 448.107 194.143 448.075C194.246 448.043 194.356 448.028 194.466 448.032C194.576 448.035 194.684 448.056 194.784 448.094C194.884 448.132 194.973 448.185 195.046 448.252C195.119 448.318 195.175 448.396 195.21 448.48C195.245 448.564 195.259 448.654 195.25 448.742C195.241 448.831 195.21 448.917 195.159 448.996C195.108 449.074 195.037 449.144 194.952 449.2L189.459 453.08C189.317 453.208 189.122 453.288 188.91 453.306Z" fill="#EA5E94"/>
<path d="M192.613 456.587C192.439 456.589 192.268 456.545 192.127 456.463C191.985 456.381 191.88 456.264 191.827 456.13C191.774 455.996 191.775 455.851 191.831 455.718C191.887 455.585 191.995 455.469 192.138 455.389L197.51 452.275C197.686 452.174 197.905 452.133 198.119 452.16C198.333 452.188 198.526 452.282 198.654 452.422C198.718 452.493 198.764 452.572 198.789 452.657C198.815 452.741 198.819 452.829 198.802 452.915C198.785 453.001 198.747 453.083 198.69 453.157C198.634 453.231 198.559 453.295 198.472 453.346L193.088 456.46C192.949 456.54 192.784 456.584 192.613 456.587Z" fill="#EA5E94"/>
<path d="M199.527 457.87C199.357 457.871 199.19 457.833 199.049 457.761C198.909 457.689 198.8 457.587 198.739 457.467C198.661 457.312 198.667 457.14 198.756 456.988C198.844 456.836 199.009 456.715 199.215 456.653L201.328 456.035C201.53 455.994 201.745 456.011 201.932 456.082C202.119 456.153 202.265 456.273 202.341 456.419C202.416 456.565 202.418 456.727 202.344 456.874C202.27 457.021 202.126 457.142 201.941 457.215L199.827 457.823C199.732 457.852 199.63 457.868 199.527 457.87Z" fill="#EA5E94"/>
<path d="M225.524 450.084L285.206 423.207C287.543 421.837 289.454 420.047 290.787 417.98C292.12 415.912 292.839 413.623 292.887 411.293C292.936 408.963 292.312 406.656 291.066 404.554C289.819 402.451 287.984 400.611 285.705 399.179L206.328 340.917C206.328 340.917 190.494 346.702 189.751 358.265C189.008 369.827 197.631 379.08 197.631 379.08L250.688 409.729L210.713 427.608C209.757 428.027 208.951 428.637 208.373 429.381C207.795 430.124 207.464 430.975 207.412 431.851C207.315 433.963 208.106 437.225 211.297 442.117C214.111 446.429 216.657 448.689 218.715 449.858C219.709 450.408 220.875 450.721 222.079 450.761C223.283 450.801 224.477 450.566 225.524 450.084Z" fill="#332680"/>
<path d="M85.8554 684.43H118.814C120.791 684.431 122.707 683.883 124.241 682.877C125.774 681.872 126.83 680.47 127.231 678.909L146.159 479.701L151.177 459.465L92.3229 455.998L77.3781 676.277C77.1571 677.276 77.2106 678.301 77.5348 679.282C77.859 680.262 78.446 681.173 79.2544 681.951C80.0628 682.728 81.0729 683.353 82.2135 683.782C83.354 684.21 84.5972 684.431 85.8554 684.43Z" fill="#1A3066"/>
<path d="M162.967 684.43H196.097C198.244 684.422 200.309 683.766 201.887 682.592C203.464 681.418 204.44 679.81 204.623 678.085L194.136 467V460.065L139.642 458.906L154.38 677.033C154.302 677.981 154.466 678.932 154.862 679.827C155.258 680.722 155.878 681.542 156.683 682.235C157.488 682.929 158.461 683.481 159.542 683.859C160.623 684.237 161.789 684.431 162.967 684.43Z" fill="#1A3066"/>
<path d="M162.37 684.43L163.588 719.126C163.588 719.126 180.64 723.684 218.483 716.179C218.832 716.114 219.154 715.979 219.421 715.787C219.689 715.595 219.892 715.352 220.013 715.081C220.134 714.809 220.169 714.518 220.115 714.233C220.06 713.948 219.918 713.678 219.701 713.448C217.156 710.796 211.115 706.15 197.68 702.289L196.791 684.43H162.37Z" fill="#1D205C"/>
<path d="M119.582 684.43L120.8 719.126C120.8 719.126 96.2206 731.219 58.3773 723.724C58.0289 723.658 57.7065 723.523 57.4393 723.331C57.1722 723.139 56.9688 722.897 56.8477 722.625C56.7266 722.354 56.6917 722.062 56.7461 721.777C56.8006 721.492 56.9426 721.222 57.1593 720.993C59.6927 718.34 65.6853 713.694 79.1686 709.824L83.7239 684.43H119.582Z" fill="#1D205C"/>
<path d="M91.2025 461.037C91.1067 461.936 91.4506 462.83 92.1606 463.527C92.8706 464.225 93.8906 464.671 95.0027 464.77L113.114 466.401C119.57 466.98 131.043 471.607 136.062 471.027C141.08 470.448 153.272 471.027 158.29 471.027C163.308 471.027 184.818 469.868 187.693 469.289C188.492 469.141 189.308 469.059 190.129 469.043C191.214 469.022 192.248 468.669 193.024 468.057C193.799 467.444 194.257 466.617 194.306 465.743L194.903 455.919L92.384 449.652L91.2025 461.037Z" fill="#132961"/>
<path d="M155.416 328.824C155.416 328.824 92.3231 328.824 93.1148 352.528C93.9065 376.232 93.1148 456.047 93.1148 456.047C118.498 462.51 136.963 463.453 139.399 463.552C139.399 463.552 166.926 466.99 194.209 460.054C194.209 460.054 210.043 379.67 215.719 356.536C221.395 333.402 155.416 328.824 155.416 328.824Z" fill="#332680"/>
<path d="M93.4437 404.867C93.4437 404.867 86.5863 438.07 84.4426 445.585C83.2246 449.652 91.6045 457.147 100.277 458.306C108.949 459.465 122.7 467.412 136.817 465.241C150.933 463.07 155.087 467.51 165.501 466.4C176.256 465.241 182.699 466.4 187.011 464.672C191.322 462.943 204.209 459.465 202.065 445.585C199.921 431.704 204.404 408.993 204.404 408.993L150.434 394.7L93.4437 404.867Z" fill="#332680"/>
<path d="M146.817 313.736L144.843 333.923C144.774 334.604 144.921 335.287 145.271 335.91C145.62 336.532 146.161 337.072 146.841 337.479C149.35 338.992 154.441 340.917 164.027 340.917C170.202 340.917 173.966 340.387 176.207 339.738C177.273 339.427 178.175 338.832 178.766 338.052C179.357 337.272 179.602 336.352 179.459 335.445L176.183 313.736H146.817Z" fill="#ED6E83"/>
<path d="M180.872 304.482C181.861 304.482 182.662 303.836 182.662 303.038C182.662 302.241 181.861 301.594 180.872 301.594C179.883 301.594 179.081 302.241 179.081 303.038C179.081 303.836 179.883 304.482 180.872 304.482Z" fill="black"/>
<path d="M134.692 526.065C134.692 526.065 141.671 505.201 143.827 504.051C145.983 502.902 150.282 521.399 145.252 528.914C140.222 536.429 138.09 545.683 138.09 549.73C138.09 553.777 132 558.807 132 558.807L134.692 526.065Z" fill="#132961"/>
<path d="M165.062 342.096H163.259C153.771 341.821 147.523 340.249 144.709 337.42C143.692 336.475 143.16 335.252 143.223 334.001L142.529 329.512L145.367 329.227L146.122 334.031V334.198C146.132 334.897 146.477 335.565 147.084 336.064C148.412 337.312 152.285 339.463 163.405 339.777C170.506 339.993 175.366 338.933 177.473 336.732C178.01 336.146 178.378 335.47 178.55 334.755C178.723 334.04 178.696 333.302 178.472 332.596L181.213 331.919C181.569 332.972 181.625 334.077 181.376 335.151C181.127 336.225 180.58 337.239 179.775 338.117C177.205 340.75 172.285 342.096 165.062 342.096Z" fill="#6C7FE3"/>
<path d="M30.1351 413.004C29.6498 413.09 29.1781 412.792 29.0515 412.315C28.9102 411.783 29.2524 411.244 29.7947 411.149C34.7991 410.276 39.6657 409.734 41.5993 409.534C42.0824 409.483 42.5239 409.838 42.5868 410.319C42.6552 410.843 42.2522 411.349 41.7267 411.404C39.7331 411.61 35.0066 412.146 30.1351 413.004Z" fill="#302286"/>
<path d="M103.796 377.352C103.796 377.352 105.952 396.999 100.216 402.795C94.4788 408.59 94.4788 414.73 91.6165 416.862L93.0415 405.074L94.4788 383.099L103.796 377.352Z" fill="#332680"/>
<path d="M200.591 378.501C200.202 382.368 200.443 386.258 201.31 390.073C202.747 395.27 202.028 404.524 204.172 408.571L209.178 385.8L200.591 378.501Z" fill="#332680"/>
<path d="M168.326 276.152C168.326 276.152 166.889 293.176 143.235 299.856L139.642 298.127C139.642 298.127 140.361 275.533 166.889 273.833L168.326 276.152Z" fill="black"/>
<path d="M168.326 276.151C168.326 276.151 179.081 288.922 188.399 295.228C188.399 295.228 193.417 287.713 178.363 276.151C178.363 276.151 164.027 269.786 168.326 276.151Z" fill="black"/>
<path d="M144.661 298.127C144.441 299.674 144.499 301.239 144.831 302.773C143.354 301.519 142.526 299.857 142.517 298.127H144.661Z" fill="black"/>
<path d="M194.282 314.207H193.77C195.098 297.134 192.272 272.468 165.22 271.427C165.22 271.427 137.486 266.888 137.669 300.474C137.669 305.052 137.669 308.883 137.669 312.115C134.117 312.261 130.76 313.467 128.25 315.498C125.739 317.53 124.256 320.242 124.088 323.107C123.998 324.624 124.28 326.14 124.917 327.569C125.554 328.998 126.534 330.311 127.801 331.434C129.068 332.558 130.597 333.468 132.301 334.114C134.004 334.76 135.849 335.129 137.73 335.2L192.881 337.322C196.68 337.466 200.393 336.388 203.207 334.325C206.021 332.262 207.704 329.383 207.887 326.32C208.072 323.259 206.744 320.264 204.193 317.992C201.642 315.721 198.077 314.36 194.282 314.207Z" fill="black"/>
<defs>
<filter id="filter0_d_16_65" x="41.2917" y="0.148611" width="383.132" height="728.132" filterUnits="userSpaceOnUse" color-interpolation-filters="sRGB">
<feFlood flood-opacity="0" result="BackgroundImageFix"/>
<feColorMatrix in="SourceAlpha" type="matrix" values="0 0 0 0 0 0 0 0 0 0 0 0 0 0 0 0 0 0 127 0" result="hardAlpha"/>
<feOffset dx="-4.6422" dy="-2.78532"/>
<feGaussianBlur stdDeviation="19.033"/>
<feComposite in2="hardAlpha" operator="out"/>
<feColorMatrix type="matrix" values="0 0 0 0 0.724041 0 0 0 0 0.397135 0 0 0 0 0.7625 0 0 0 0.25 0"/>
<feBlend mode="normal" in2="BackgroundImageFix" result="effect1_dropShadow_16_65"/>
<feBlend mode="normal" in="SourceGraphic" in2="effect1_dropShadow_16_65" result="shape"/>
</filter>
<filter id="filter1_d_16_65" x="121.624" y="23.3598" width="324.544" height="629.243" filterUnits="userSpaceOnUse" color-interpolation-filters="sRGB">
<feFlood flood-opacity="0" result="BackgroundImageFix"/>
<feColorMatrix in="SourceAlpha" type="matrix" values="0 0 0 0 0 0 0 0 0 0 0 0 0 0 0 0 0 0 127 0" result="hardAlpha"/>
<feOffset dx="27.8532" dy="2.78532"/>
<feGaussianBlur stdDeviation="13.9266"/>
<feComposite in2="hardAlpha" operator="out"/>
<feColorMatrix type="matrix" values="0 0 0 0 0.0388889 0 0 0 0 0.504 0 0 0 0 0.933333 0 0 0 0.2 0"/>
<feBlend mode="normal" in2="BackgroundImageFix" result="effect1_dropShadow_16_65"/>
<feBlend mode="normal" in="SourceGraphic" in2="effect1_dropShadow_16_65" result="shape"/>
</filter>
</defs>
</svg>
