<svg width="37" height="47" viewBox="0 0 37 47" fill="none" xmlns="http://www.w3.org/2000/svg">
<path d="M36.3572 13.4332L24.9582 2.09468C24.8803 2.0172 24.7747 1.97366 24.6646 1.97363H3.41487C3.08443 1.97363 2.76753 2.10421 2.53387 2.33663C2.30021 2.56906 2.16895 2.8843 2.16895 3.213V45.0758C2.16895 45.4045 2.30021 45.7197 2.53387 45.9522C2.76753 46.1846 3.08443 46.3152 3.41487 46.3152H35.2554C35.5858 46.3152 35.9027 46.1846 36.1364 45.9522C36.37 45.7197 36.5013 45.4045 36.5013 45.0758V13.7463C36.5014 13.6869 36.4885 13.6282 36.4636 13.5741C36.4388 13.5201 36.4025 13.472 36.3572 13.4332V13.4332Z" fill="#E6E7E8"/>
<path d="M34.5546 12.1293L23.0873 0.729736H1.7522C1.53101 0.729736 1.31889 0.817083 1.16248 0.972563C1.00608 1.12804 0.918213 1.33892 0.918213 1.5588V43.5649C0.918213 43.7848 1.00608 43.9956 1.16248 44.1511C1.31889 44.3066 1.53101 44.394 1.7522 44.394H33.7215C33.9427 44.394 34.1548 44.3066 34.3112 44.1511C34.4676 43.9956 34.5555 43.7848 34.5555 43.5649V12.1285L34.5546 12.1293Z" fill="#D4FBFF"/>
<path d="M14.5627 29.6881C14.7297 29.8624 14.8229 30.094 14.8229 30.3347C14.8229 30.5755 14.7297 30.807 14.5627 30.9814C14.3805 31.1321 14.149 31.2108 13.9122 31.2028H12.5186C12.2157 31.2219 11.912 31.1794 11.6261 31.0778C11.3403 30.9761 11.0784 30.8175 10.8565 30.6116C10.6537 30.3902 10.4975 30.1307 10.3973 29.8483C10.297 29.566 10.2546 29.2665 10.2727 28.9676V25.384C10.3037 25.0084 10.2127 24.6327 10.0129 24.3124C9.89333 24.1874 9.74901 24.0884 9.58903 24.0216C9.42905 23.9548 9.25689 23.9217 9.0834 23.9244C8.96296 23.9297 8.84275 23.9098 8.73058 23.8658C8.61841 23.8219 8.51679 23.7551 8.43231 23.6696C8.34784 23.5841 8.2824 23.4819 8.24026 23.3696C8.19812 23.2573 8.18021 23.1375 8.18769 23.0178C8.18283 22.9031 8.20084 22.7885 8.24071 22.6808C8.28057 22.573 8.34149 22.4741 8.41996 22.3898C8.59703 22.2206 8.83407 22.1277 9.07965 22.1312C9.25313 22.1338 9.4253 22.1007 9.58528 22.034C9.74526 21.9672 9.88957 21.8682 10.0091 21.7432C10.209 21.4229 10.3 21.0472 10.2689 20.6716V17.09C10.2509 16.7911 10.2933 16.4917 10.3935 16.2093C10.4938 15.927 10.6499 15.6674 10.8527 15.446C11.0748 15.24 11.3369 15.0813 11.623 14.9796C11.909 14.878 12.2129 14.8355 12.5161 14.8549H13.9097C14.1465 14.8468 14.378 14.9256 14.5602 15.0763C14.7272 15.2506 14.8204 15.4822 14.8204 15.7229C14.8204 15.9637 14.7272 16.1952 14.5602 16.3696C14.3782 16.5205 14.1466 16.5995 13.9097 16.5914H13.3167C13.2113 16.5835 13.1054 16.5966 13.0052 16.6299C12.9049 16.6632 12.8124 16.7161 12.7329 16.7854C12.6611 16.8707 12.6069 16.9693 12.5734 17.0755C12.5399 17.1817 12.5278 17.2934 12.5378 17.4043V20.951C12.5549 21.4516 12.401 21.9433 12.1012 22.3459C11.8529 22.693 11.4866 22.9391 11.07 23.0386C11.4846 23.1369 11.8501 23.3796 12.1004 23.7225C12.401 24.1211 12.5551 24.6101 12.5369 25.1079V28.6546C12.5174 28.8782 12.5879 29.1003 12.7329 29.2723C12.8124 29.3416 12.9049 29.3944 13.0052 29.4277C13.1054 29.461 13.2113 29.4741 13.3167 29.4663H13.9114C14.1485 29.458 14.3805 29.5369 14.5627 29.6881V29.6881Z" fill="#287ECE"/>
<path d="M26.2601 22.3911C26.3386 22.4751 26.3997 22.5738 26.4398 22.6813C26.4799 22.7889 26.4981 22.9033 26.4936 23.0179C26.5027 23.2507 26.423 23.4784 26.2705 23.6554C26.1837 23.7432 26.0797 23.8122 25.9649 23.8583C25.8502 23.9043 25.7271 23.9264 25.6033 23.9232C25.4299 23.9205 25.2578 23.9536 25.0979 24.0204C24.938 24.0872 24.7937 24.1862 24.6743 24.3112C24.4741 24.6314 24.3829 25.0071 24.4141 25.3828V28.9664C24.4321 29.2653 24.3897 29.5647 24.2895 29.8471C24.1892 30.1295 24.0331 30.389 23.8303 30.6104C23.6082 30.8164 23.3462 30.9751 23.0602 31.0767C22.7742 31.1784 22.4704 31.2208 22.1673 31.2015H20.7687C20.532 31.2097 20.3006 31.1309 20.1186 30.9802C19.9516 30.8058 19.8584 30.5743 19.8584 30.3335C19.8584 30.0927 19.9516 29.8612 20.1186 29.6868C20.3004 29.5358 20.5319 29.4569 20.7687 29.4651H21.3646C21.47 29.4729 21.5759 29.4597 21.6761 29.4264C21.7763 29.3931 21.8689 29.3403 21.9484 29.2711C22.0933 29.0986 22.1633 28.876 22.1431 28.6522V25.1067C22.1254 24.6091 22.28 24.1205 22.581 23.7226C22.8314 23.3794 23.1972 23.1369 23.6122 23.039C23.1955 22.9397 22.8291 22.6936 22.581 22.3463C22.2808 21.9438 22.1268 21.4521 22.1439 20.9514V17.4035C22.1642 17.1797 22.0941 16.957 21.9492 16.7846C21.8697 16.7153 21.7772 16.6625 21.6769 16.6292C21.5767 16.5959 21.4708 16.5828 21.3654 16.5906H20.7687C20.5319 16.5988 20.3004 16.5198 20.1186 16.3688C19.9516 16.1944 19.8584 15.9629 19.8584 15.7221C19.8584 15.4813 19.9516 15.2498 20.1186 15.0755C20.3006 14.9248 20.532 14.846 20.7687 14.8541H22.1627C22.4657 14.8349 22.7693 14.8774 23.0552 14.9791C23.341 15.0807 23.6029 15.2394 23.8248 15.4452C24.0276 15.6666 24.1838 15.9262 24.284 16.2085C24.3843 16.4909 24.4267 16.7903 24.4086 17.0892V20.6729C24.3774 21.0486 24.4687 21.4243 24.6688 21.7444C24.7883 21.8694 24.9325 21.9685 25.0925 22.0353C25.2524 22.102 25.4245 22.1351 25.5979 22.1324C25.8443 22.1284 26.0824 22.2214 26.2601 22.3911V22.3911Z" fill="#287ECE"/>
<path d="M0.918213 34.5833V43.5649C0.918213 43.7848 1.00608 43.9957 1.16248 44.1511C1.31889 44.3066 1.53101 44.394 1.7522 44.394H33.7215C33.9427 44.394 34.1548 44.3066 34.3112 44.1511C34.4676 43.9957 34.5555 43.7848 34.5555 43.5649V34.5833H0.918213Z" fill="#316BC2"/>
<path d="M1.7522 1.97333H24.3387L23.0877 0.729736H1.7522C1.53101 0.729736 1.31889 0.817083 1.16248 0.972563C1.00608 1.12804 0.918213 1.33892 0.918213 1.5588V2.80239C0.918213 2.58251 1.00608 2.37164 1.16248 2.21616C1.31889 2.06068 1.53101 1.97333 1.7522 1.97333V1.97333Z" fill="#9AC2FF"/>
<path d="M23.0886 0.729736V11.3003C23.0886 11.5202 23.1765 11.731 23.3329 11.8865C23.4893 12.042 23.7014 12.1293 23.9226 12.1293H34.556L23.0886 0.729736Z" fill="#316BC2"/>
<path d="M12.4308 22.5979C12.7869 22.1229 12.9713 21.5423 12.9541 20.9502V17.4034C12.9541 17.1684 13.01 17.0946 13.0271 17.0776C13.1126 17.0196 13.2161 16.9939 13.319 17.0051H13.9136C14.2502 17.0136 14.5782 16.8991 14.8356 16.6834C14.9641 16.558 15.0661 16.4084 15.1358 16.2433C15.2055 16.0783 15.2413 15.9011 15.2413 15.7221C15.2413 15.5431 15.2055 15.3659 15.1358 15.2009C15.0661 15.0358 14.9641 14.8862 14.8356 14.7608C14.5782 14.5452 14.2501 14.4309 13.9136 14.4395H12.5188C12.1604 14.4198 11.8016 14.4731 11.4646 14.5961C11.1276 14.719 10.8194 14.9091 10.5589 15.1546C10.3173 15.4141 10.1304 15.719 10.0091 16.0514C9.8879 16.3838 9.83479 16.7369 9.85295 17.0901V20.6737C9.88373 20.9572 9.8236 21.2432 9.68115 21.4907C9.51206 21.6428 9.2907 21.7246 9.06274 21.7191C8.70973 21.7189 8.37095 21.8575 8.12034 22.1046C8.00443 22.2265 7.91388 22.3698 7.85391 22.5266C7.79394 22.6833 7.76573 22.8503 7.77089 23.0178C7.76369 23.1886 7.79133 23.359 7.85215 23.5188C7.91298 23.6786 8.00572 23.8245 8.1248 23.9477C8.24387 24.0709 8.38681 24.1689 8.545 24.2357C8.70319 24.3025 8.87335 24.3368 9.04523 24.3365C9.27852 24.3287 9.50584 24.4107 9.6799 24.5653C9.82269 24.8129 9.88297 25.099 9.85211 25.3828V28.9664C9.83394 29.3194 9.88699 29.6725 10.0082 30.0048C10.1293 30.3371 10.3162 30.642 10.5577 30.9014C10.8182 31.1468 11.1265 31.3368 11.4635 31.4597C11.8005 31.5826 12.1591 31.6358 12.5175 31.6161H13.9111C14.2476 31.6247 14.5757 31.5104 14.8331 31.2948C14.9616 31.1694 15.0636 31.0198 15.1333 30.8547C15.203 30.6897 15.2388 30.5125 15.2388 30.3335C15.2388 30.1545 15.203 29.9773 15.1333 29.8123C15.0636 29.6472 14.9616 29.4976 14.8331 29.3722C14.5757 29.1565 14.2477 29.042 13.9111 29.0505H13.3169C13.214 29.0617 13.1105 29.036 13.025 28.978C13.0079 28.961 12.952 28.8872 12.952 28.6522V25.1067C12.9702 24.5161 12.7848 23.9371 12.4266 23.4655C12.3026 23.3063 12.1601 23.1622 12.0021 23.0361C12.1621 22.9076 12.3061 22.7605 12.4308 22.5979V22.5979ZM12.1201 20.9502C12.1376 21.3593 12.0141 21.762 11.7699 22.0918C11.5813 22.361 11.3005 22.5526 10.9801 22.6307C10.8871 22.6508 10.8039 22.702 10.7442 22.7757C10.6845 22.8493 10.652 22.9411 10.652 23.0357C10.652 23.1303 10.6845 23.222 10.7442 23.2957C10.8039 23.3693 10.8871 23.4205 10.9801 23.4407C11.3002 23.5183 11.5815 23.708 11.7724 23.975C12.0156 24.3006 12.1384 24.6995 12.1201 25.1046V28.6513C12.109 28.8167 12.1314 28.9826 12.1859 29.1393C12.2404 29.2959 12.3259 29.4401 12.4375 29.5633C12.5553 29.6721 12.694 29.7561 12.8453 29.8103C12.9965 29.8645 13.1572 29.8878 13.3178 29.8788H13.9124C14.0496 29.8708 14.1849 29.9143 14.2914 30.0006C14.3658 30.0954 14.4062 30.2121 14.4062 30.3323C14.4062 30.4524 14.3658 30.5692 14.2914 30.6639C14.1849 30.7502 14.0496 30.7937 13.9124 30.7857H12.5188C12.2711 30.8048 12.022 30.7731 11.7871 30.6928C11.5521 30.6124 11.3363 30.4851 11.1527 30.3186C10.9879 30.1355 10.8617 29.9213 10.7817 29.6888C10.7017 29.4563 10.6695 29.2102 10.6869 28.9651V25.384C10.722 24.9157 10.5996 24.4492 10.3392 24.0575C10.1827 23.8847 9.99139 23.7466 9.77762 23.6523C9.56385 23.558 9.33247 23.5096 9.09861 23.5103C9.03186 23.5175 8.96434 23.5097 8.90104 23.4874C8.83774 23.4652 8.78027 23.4291 8.73288 23.3818C8.68549 23.3346 8.64938 23.2773 8.62723 23.2143C8.60507 23.1513 8.59744 23.0842 8.60488 23.0178C8.59958 22.9562 8.60714 22.8941 8.62709 22.8355C8.64704 22.7768 8.67894 22.7229 8.72081 22.6771C8.82972 22.5838 8.97089 22.5362 9.11445 22.5445C9.34561 22.5437 9.57404 22.4947 9.78489 22.4005C9.99574 22.3063 10.1843 22.169 10.3383 21.9977C10.5989 21.606 10.7212 21.1394 10.6861 20.6712V17.0901C10.6686 16.845 10.7008 16.599 10.7808 16.3665C10.8608 16.1341 10.987 15.92 11.1519 15.737C11.3354 15.5704 11.5513 15.443 11.7862 15.3626C12.0212 15.2822 12.2702 15.2505 12.518 15.2694H13.9116C14.0488 15.2615 14.184 15.305 14.2906 15.3913C14.365 15.486 14.4054 15.6028 14.4054 15.7229C14.4054 15.8431 14.365 15.9598 14.2906 16.0546C14.1839 16.1407 14.0488 16.1842 13.9116 16.1764H13.3169C13.1564 16.1675 12.9958 16.1908 12.8446 16.245C12.6933 16.2991 12.5546 16.3829 12.4366 16.4915C12.3252 16.6147 12.2397 16.7589 12.1852 16.9155C12.1307 17.0722 12.1083 17.2381 12.1193 17.4034L12.1201 20.9502Z" fill="#2C3160"/>
<path d="M22.2533 23.4655C21.8949 23.9369 21.7094 24.5159 21.7274 25.1066V28.6533C21.7274 28.8884 21.672 28.9621 21.6549 28.9791C21.5694 29.0371 21.4659 29.0628 21.363 29.0517H20.7696C20.4332 29.0429 20.1052 29.1572 19.848 29.3729C19.7195 29.4983 19.6174 29.6479 19.5477 29.813C19.478 29.978 19.4421 30.1552 19.4421 30.3342C19.4421 30.5132 19.478 30.6905 19.5477 30.8555C19.6174 31.0206 19.7195 31.1702 19.848 31.2955C20.1053 31.5115 20.4334 31.626 20.77 31.6172H22.1636C22.522 31.6369 22.8807 31.5837 23.2177 31.4608C23.5547 31.3379 23.8629 31.148 24.1235 30.9026C24.3649 30.6431 24.5517 30.3382 24.6728 30.0059C24.7939 29.6736 24.8469 29.3205 24.8286 28.9675V25.3839C24.7978 25.1003 24.8581 24.8143 25.0008 24.5669C25.1695 24.4149 25.3904 24.3331 25.618 24.3385C25.7982 24.3407 25.9769 24.3056 26.1428 24.2356C26.3086 24.1656 26.4581 24.0622 26.5817 23.9318C26.8034 23.6793 26.9211 23.3528 26.9111 23.0178C26.9165 22.8499 26.8885 22.6826 26.8286 22.5256C26.7688 22.3685 26.6784 22.2247 26.5625 22.1025V22.1025C26.3167 21.8587 25.9844 21.7208 25.6372 21.7186C25.4038 21.7261 25.1765 21.6438 25.0025 21.489C24.8598 21.2415 24.7995 20.9555 24.8303 20.6719V17.09C24.8485 16.737 24.7955 16.3839 24.6744 16.0516C24.5533 15.7193 24.3666 15.4144 24.1252 15.1549C23.8646 14.9095 23.5564 14.7195 23.2194 14.5967C22.8824 14.4738 22.5237 14.4206 22.1653 14.4403H20.7696C20.4332 14.4313 20.1051 14.5456 19.848 14.7615C19.7195 14.8869 19.6174 15.0365 19.5477 15.2016C19.478 15.3666 19.4421 15.5438 19.4421 15.7228C19.4421 15.9019 19.478 16.0791 19.5477 16.2441C19.6174 16.4092 19.7195 16.5588 19.848 16.6841C20.1053 16.9002 20.4334 17.0146 20.77 17.0058H21.3651C21.4679 16.9948 21.5713 17.0204 21.657 17.078C21.6741 17.0954 21.7295 17.1691 21.7295 17.4042V20.9509C21.7123 21.543 21.8967 22.1234 22.2529 22.5983C22.3771 22.7607 22.5203 22.908 22.6794 23.0368C22.5209 23.1625 22.3779 23.3064 22.2533 23.4655V23.4655ZM22.5614 25.1066C22.5431 24.7013 22.6661 24.3021 22.9096 23.9766C23.1006 23.7097 23.3819 23.5202 23.7019 23.4427C23.7949 23.4225 23.8781 23.3713 23.9378 23.2977C23.9974 23.224 24.03 23.1322 24.03 23.0377C24.03 22.9431 23.9974 22.8513 23.9378 22.7777C23.8781 22.704 23.7949 22.6528 23.7019 22.6327C23.3815 22.5545 23.1007 22.3629 22.9121 22.0938C22.668 21.764 22.5444 21.3612 22.5618 20.9522V17.4034C22.573 17.238 22.5506 17.0721 22.4961 16.9154C22.4416 16.7588 22.3561 16.6146 22.2445 16.4914C22.1267 16.3828 21.988 16.299 21.8368 16.2448C21.6857 16.1907 21.5251 16.1674 21.3647 16.1763H20.7696C20.6319 16.1836 20.4965 16.1392 20.3901 16.052C20.3157 15.9573 20.2753 15.8405 20.2753 15.7204C20.2753 15.6002 20.3157 15.4835 20.3901 15.3887C20.4968 15.3027 20.632 15.2594 20.7692 15.2673H22.1628C22.4105 15.2484 22.6595 15.2801 22.8944 15.3604C23.1294 15.4407 23.3453 15.568 23.5289 15.7345C23.694 15.9178 23.8203 16.1323 23.9003 16.3652C23.9803 16.598 24.0124 16.8445 23.9946 17.09V20.6736C23.9595 21.1419 24.082 21.6086 24.3428 22.0001C24.4992 22.1729 24.6904 22.311 24.9041 22.4053C25.1179 22.4996 25.3492 22.548 25.583 22.5473C25.7213 22.5414 25.8567 22.5887 25.9608 22.6795C26.0023 22.7251 26.034 22.7786 26.054 22.8367C26.074 22.8949 26.0819 22.9565 26.0771 23.0178C26.0872 23.1491 26.0449 23.279 25.9595 23.3797C25.8512 23.4729 25.7101 23.5197 25.5671 23.5098C25.3361 23.5106 25.1078 23.5596 24.897 23.6537C24.6862 23.7479 24.4977 23.885 24.3437 24.0562C24.0826 24.4476 23.9601 24.9143 23.9955 25.3827V28.9663C24.013 29.2114 23.9809 29.4575 23.9009 29.6899C23.821 29.9224 23.6949 30.1366 23.5301 30.3197C23.3466 30.4862 23.1307 30.6136 22.8957 30.6939C22.6608 30.7743 22.4118 30.8059 22.164 30.7869H20.7696C20.6322 30.7949 20.4969 30.7514 20.3901 30.665C20.3157 30.5703 20.2753 30.4536 20.2753 30.3334C20.2753 30.2132 20.3157 30.0965 20.3901 30.0018C20.4967 29.9154 20.6319 29.8719 20.7692 29.8799H21.3651C21.5256 29.8889 21.6863 29.8656 21.8376 29.8114C21.9888 29.7572 22.1275 29.6732 22.2453 29.5645C22.3568 29.4412 22.4423 29.297 22.4967 29.1404C22.5512 28.9837 22.5735 28.8178 22.5623 28.6525L22.5614 25.1066Z" fill="#2C3160"/>
<path d="M34.8336 11.8193L23.3825 0.436643C23.3043 0.358898 23.1983 0.315209 23.0877 0.315186H1.7522C1.42042 0.315186 1.10223 0.446206 0.867625 0.679425C0.63302 0.912644 0.501221 1.22896 0.501221 1.55878V5.31733C0.501221 5.42727 0.545154 5.53271 0.623355 5.61045C0.701557 5.68819 0.807621 5.73186 0.918215 5.73186C1.02881 5.73186 1.13487 5.68819 1.21307 5.61045C1.29128 5.53271 1.33521 5.42727 1.33521 5.31733V1.55754C1.33521 1.44759 1.37914 1.34216 1.45734 1.26442C1.53555 1.18668 1.64161 1.143 1.7522 1.143H22.6707V11.299C22.6707 11.6288 22.8025 11.9452 23.0371 12.1784C23.2717 12.4116 23.5899 12.5426 23.9217 12.5426H34.1381V34.1687H1.33521V12.8494C1.33521 12.7394 1.29128 12.634 1.21307 12.5562C1.13487 12.4785 1.02881 12.4348 0.918215 12.4348C0.807621 12.4348 0.701557 12.4785 0.623355 12.5562C0.545154 12.634 0.501221 12.7394 0.501221 12.8494V43.5661C0.501221 43.8959 0.63302 44.2123 0.867625 44.4455C1.10223 44.6787 1.42042 44.8097 1.7522 44.8097H33.7219C34.0537 44.8097 34.3719 44.6787 34.6065 44.4455C34.8411 44.2123 34.9729 43.8959 34.9729 43.5661V12.1285C34.9729 12.0701 34.9605 12.0124 34.9365 11.9591C34.9125 11.9058 34.8774 11.8581 34.8336 11.8193ZM23.5047 11.3003V1.73081L33.5484 11.7148H23.9217C23.8111 11.7148 23.705 11.6711 23.6268 11.5934C23.5486 11.5156 23.5047 11.4102 23.5047 11.3003ZM33.7211 43.979H1.7522C1.64161 43.979 1.53555 43.9353 1.45734 43.8576C1.37914 43.7798 1.33521 43.6744 1.33521 43.5645V34.9978H34.1389V43.5645C34.1389 43.6744 34.095 43.7798 34.0168 43.8576C33.9386 43.9353 33.8325 43.979 33.7219 43.979H33.7211Z" fill="#2C3160"/>
<path d="M0.918459 11.5353C1.02905 11.5353 1.13512 11.4916 1.21332 11.4139C1.29152 11.3361 1.33545 11.2307 1.33545 11.1208V7.18272C1.33545 7.07278 1.29152 6.96734 1.21332 6.8896C1.13512 6.81186 1.02905 6.76819 0.918459 6.76819C0.807865 6.76819 0.701801 6.81186 0.623599 6.8896C0.545398 6.96734 0.501465 7.07278 0.501465 7.18272V11.1208C0.501465 11.2307 0.545398 11.3361 0.623599 11.4139C0.701801 11.4916 0.807865 11.5353 0.918459 11.5353Z" fill="#2C3160"/>
</svg>
