<svg width="30" height="25" viewBox="0 0 30 25" fill="none" xmlns="http://www.w3.org/2000/svg">
<path d="M17.7273 8.08861C17.7273 7.93599 17.7727 7.78972 17.8636 7.64982C17.9545 7.50991 18.0568 7.41452 18.1705 7.36365C18.8523 7.08384 19.5511 6.86762 20.267 6.715C20.983 6.56238 21.7273 6.48607 22.5 6.48607C23 6.48607 23.4886 6.51786 23.9659 6.58146C24.4432 6.64505 24.9091 6.74044 25.3636 6.86762C25.5 6.9185 25.625 7.01389 25.7386 7.15379C25.8523 7.2937 25.9091 7.45268 25.9091 7.63074C25.9091 7.91055 25.8239 8.12677 25.6534 8.27939C25.483 8.43201 25.2727 8.47017 25.0227 8.39386C24.6364 8.26667 24.233 8.17128 23.8125 8.10769C23.392 8.04409 22.9545 8.0123 22.5 8.0123C21.8409 8.0123 21.2045 8.08225 20.5909 8.22215C19.9773 8.36206 19.375 8.57192 18.7841 8.85173C18.4659 8.97891 18.2102 8.97255 18.017 8.83265C17.8239 8.69274 17.7273 8.44473 17.7273 8.08861ZM17.7273 16.4829C17.7273 16.3303 17.7727 16.1776 17.8636 16.025C17.9545 15.8724 18.0568 15.7706 18.1705 15.7198C18.8523 15.44 19.5511 15.2301 20.267 15.0902C20.983 14.9503 21.7273 14.8803 22.5 14.8803C23 14.8803 23.4886 14.9121 23.9659 14.9757C24.4432 15.0393 24.9091 15.1347 25.3636 15.2619C25.5 15.3128 25.625 15.4082 25.7386 15.5481C25.8523 15.688 25.9091 15.847 25.9091 16.025C25.9091 16.3048 25.8239 16.521 25.6534 16.6737C25.483 16.8263 25.2727 16.8644 25.0227 16.7881C24.6364 16.6609 24.233 16.5656 23.8125 16.502C23.392 16.4384 22.9545 16.4066 22.5 16.4066C21.8409 16.4066 21.2045 16.4702 20.5909 16.5974C19.9773 16.7245 19.375 16.928 18.7841 17.2078C18.4659 17.335 18.2102 17.335 18.017 17.2078C17.8239 17.0807 17.7273 16.839 17.7273 16.4829ZM17.7273 12.2857C17.7273 12.1331 17.7727 11.9869 17.8636 11.847C17.9545 11.7071 18.0568 11.6117 18.1705 11.5608C18.8523 11.281 19.5511 11.0648 20.267 10.9121C20.983 10.7595 21.7273 10.6832 22.5 10.6832C23 10.6832 23.4886 10.715 23.9659 10.7786C24.4432 10.8422 24.9091 10.9376 25.3636 11.0648C25.5 11.1156 25.625 11.211 25.7386 11.3509C25.8523 11.4908 25.9091 11.6498 25.9091 11.8279C25.9091 12.1077 25.8239 12.3239 25.6534 12.4765C25.483 12.6292 25.2727 12.6673 25.0227 12.591C24.6364 12.4638 24.233 12.3684 23.8125 12.3048C23.392 12.2412 22.9545 12.2094 22.5 12.2094C21.8409 12.2094 21.2045 12.2794 20.5909 12.4193C19.9773 12.5592 19.375 12.7691 18.7841 13.0489C18.4659 13.1761 18.2102 13.1697 18.017 13.0298C17.8239 12.8899 17.7273 12.6419 17.7273 12.2857ZM7.09091 19.8406C8.31818 19.8406 9.50568 19.9996 10.6534 20.3175C11.8011 20.6355 12.9318 21.1125 14.0455 21.7484V5.45586C13.0227 4.69274 11.9148 4.10133 10.7216 3.68161C9.52841 3.2619 8.31818 3.05204 7.09091 3.05204C6.22727 3.05204 5.38068 3.17287 4.55114 3.41452C3.72159 3.65618 2.88636 3.95506 2.04545 4.31118V20.8708C2.75 20.5147 3.55114 20.254 4.44886 20.0886C5.34659 19.9233 6.22727 19.8406 7.09091 19.8406ZM16.0909 21.7484C17.2273 21.1125 18.3409 20.6355 19.4318 20.3175C20.5227 19.9996 21.6818 19.8406 22.9091 19.8406C23.7727 19.8406 24.6648 19.9169 25.5852 20.0695C26.5057 20.2222 27.2955 20.4257 27.9545 20.68V4.31118C27.1818 3.87875 26.3636 3.56079 25.5 3.35729C24.6364 3.15379 23.7727 3.05204 22.9091 3.05204C21.6818 3.05204 20.4943 3.2619 19.3466 3.68161C18.1989 4.10133 17.1136 4.69274 16.0909 5.45586V21.7484ZM15.0682 24.7627C14.8864 24.7627 14.7216 24.7436 14.5739 24.7055C14.4261 24.6673 14.2955 24.5974 14.1818 24.4956C13.1136 23.7579 11.9773 23.1856 10.7727 22.7786C9.56818 22.3716 8.34091 22.1681 7.09091 22.1681C6.25 22.1681 5.43182 22.2826 4.63636 22.5115C3.84091 22.7404 3.04545 23.0202 2.25 23.3509C1.72727 23.6307 1.22159 23.5926 0.732955 23.2365C0.244318 22.8803 0 22.3716 0 21.7102V4.04409C0 3.66254 0.0795454 3.31277 0.238636 2.99481C0.397727 2.67684 0.636364 2.42883 0.954546 2.25077C1.90909 1.74203 2.90341 1.36683 3.9375 1.12518C4.97159 0.883522 6.02273 0.762695 7.09091 0.762695C8.52273 0.762695 9.91477 0.978912 11.267 1.41134C12.6193 1.84378 13.8864 2.50514 15.0682 3.39545C16.2273 2.50514 17.4716 1.84378 18.8011 1.41134C20.1307 0.978912 21.5 0.762695 22.9091 0.762695C23.9773 0.762695 25.0227 0.883522 26.0455 1.12518C27.0682 1.36683 28.0568 1.74203 29.0114 2.25077C29.3295 2.42883 29.5739 2.67684 29.7443 2.99481C29.9148 3.31277 30 3.66254 30 4.04409V21.7102C30 22.4225 29.7443 22.963 29.233 23.3319C28.7216 23.7007 28.2159 23.7071 27.7159 23.3509C26.9432 22.9948 26.1591 22.7086 25.3636 22.4924C24.5682 22.2762 23.75 22.1681 22.9091 22.1681C21.6818 22.1681 20.4773 22.3716 19.2955 22.7786C18.1136 23.1856 17 23.7579 15.9545 24.4956C15.8409 24.5974 15.7102 24.6673 15.5625 24.7055C15.4148 24.7436 15.25 24.7627 15.0682 24.7627Z" fill="url(#paint0_linear_98_2)"/>
<defs>
<linearGradient id="paint0_linear_98_2" x1="-0.121746" y1="24.804" x2="23.3332" y2="-4.51467" gradientUnits="userSpaceOnUse">
<stop stop-color="#6C9BE0"/>
<stop offset="1" stop-color="#1B2CC7"/>
</linearGradient>
</defs>
</svg>
