<svg width="52" height="52" viewBox="0 0 52 52" fill="none" xmlns="http://www.w3.org/2000/svg">
<path d="M40.5214 19.799C40.5214 19.799 29.527 19.0922 25.6871 23.9127C29.9254 13.5203 40.5214 11.3085 40.5214 11.3085V7.06321L51.1173 15.5538L40.5214 24.0846V19.799ZM0.311935 51.507H51.0601L25.6871 26.8695L0.311935 51.507V51.507ZM3.85733 21.7901L25.6659 5.89576L32.1358 10.6038C33.6446 9.62948 35.0835 8.89505 36.2745 8.36651L25.6659 0.646484L0.256836 19.1665V45.6485L15.8371 30.5205L3.85733 21.7901V21.7901ZM37.2409 32.174L51.1173 45.6485V21.0004L37.2409 32.174Z" fill="url(#paint0_linear_16_12)"/>
<defs>
<linearGradient id="paint0_linear_16_12" x1="0.0504336" y1="51.5945" x2="50.9985" y2="0.646483" gradientUnits="userSpaceOnUse">
<stop stop-color="#6C9BE0"/>
<stop offset="1" stop-color="#1B2CC7"/>
</linearGradient>
</defs>
</svg>
