<svg width="65" height="64" viewBox="0 0 65 64" fill="none" xmlns="http://www.w3.org/2000/svg">
<path d="M50.8388 0H13.5697C6.21968 0 0.259277 5.9604 0.259277 13.3104V50.5796C0.259277 57.9296 6.21968 63.89 13.5697 63.89H50.8388C58.1915 63.89 64.1493 57.9296 64.1493 50.5796V13.3104C64.1493 5.9604 58.1915 0 50.8388 0ZM38.95 52.1502C37.8718 52.3578 37.5284 51.695 37.5284 51.128V45.2847C37.5284 43.2961 36.831 42.0023 36.0643 41.3421C40.8081 40.815 45.7915 39.0128 45.7915 30.8349C45.7915 28.5082 44.961 26.6075 43.6006 25.1194C43.8189 24.5817 44.5483 22.4147 43.3903 19.4838C43.3903 19.4838 41.6041 18.9114 37.5391 21.6667C35.8353 21.1875 34.0145 20.9559 32.2043 20.9453C30.394 20.9533 28.5732 21.1875 26.8721 21.6614C22.8045 18.9061 21.0155 19.4785 21.0155 19.4785C19.8602 22.4121 20.5896 24.5763 20.8106 25.1167C19.4476 26.6075 18.617 28.5056 18.617 30.8322C18.617 38.9889 23.5871 40.8177 28.3203 41.3581C27.7107 41.8905 27.1596 42.8276 26.968 44.2065C25.7514 44.7496 22.6713 45.6893 20.7706 42.4336C20.7706 42.4336 19.6446 40.3891 17.5042 40.2374C17.5042 40.2374 15.4278 40.2108 17.3578 41.5338C17.3578 41.5338 18.7554 42.1887 19.7244 44.6484C19.7244 44.6484 20.957 48.4499 26.8801 47.1614V51.1253C26.8801 51.687 26.5367 52.3472 25.4745 52.1502C17.0091 49.3364 10.9076 41.3528 10.9076 31.945C10.9076 20.1812 20.4432 10.6483 32.2043 10.6483C43.9653 10.6483 53.5009 20.1812 53.5009 31.945C53.5009 41.3501 47.4074 49.3311 38.95 52.1502Z" fill="url(#paint0_linear_14_363)"/>
<defs>
<linearGradient id="paint0_linear_14_363" x1="-1.41598e-06" y1="64" x2="64" y2="-1.41598e-06" gradientUnits="userSpaceOnUse">
<stop stop-color="#6C9BE0"/>
<stop offset="1" stop-color="#1B2CC7"/>
</linearGradient>
</defs>
</svg>
