<svg width="37" height="47" viewBox="0 0 37 47" fill="none" xmlns="http://www.w3.org/2000/svg">
<path d="M36.2159 13.4332L24.8169 2.09468C24.739 2.0172 24.6334 1.97366 24.5233 1.97363H3.27352C2.94308 1.97363 2.62617 2.10421 2.39251 2.33663C2.15886 2.56906 2.02759 2.8843 2.02759 3.213V45.0758C2.02759 45.4045 2.15886 45.7197 2.39251 45.9522C2.62617 46.1846 2.94308 46.3152 3.27352 46.3152H35.1141C35.4446 46.3152 35.7615 46.1846 35.9951 45.9522C36.2288 45.7197 36.36 45.4045 36.36 45.0758V13.7463C36.3601 13.6869 36.3472 13.6282 36.3224 13.5741C36.2975 13.5201 36.2612 13.472 36.2159 13.4332V13.4332Z" fill="#E6E7E8"/>
<path d="M34.205 12.1487L22.8088 0.729736H1.60567C1.38585 0.729736 1.17504 0.817232 1.01961 0.972975C0.864177 1.12872 0.776855 1.33995 0.776855 1.5602V43.6375C0.776855 43.8578 0.864177 44.069 1.01961 44.2248C1.17504 44.3805 1.38585 44.468 1.60567 44.468H33.377C33.5968 44.468 33.8076 44.3805 33.9631 44.2248C34.1185 44.069 34.2058 43.8578 34.2058 43.6375V12.1478L34.205 12.1487Z" fill="#D4FBFF"/>
<path d="M13.7285 27.1216V27.144C13.7284 27.3568 13.6751 27.5661 13.5735 27.7534C13.4719 27.9406 13.3252 28.0999 13.1464 28.2168C12.9676 28.3337 12.7624 28.4047 12.5493 28.4234C12.3361 28.4421 12.1216 28.4078 11.925 28.3238L4.64633 25.1878C4.31476 25.0449 4.03246 24.8087 3.83413 24.5084C3.6358 24.2081 3.5301 23.8567 3.53003 23.4974V23.4779C3.53 23.1186 3.63565 22.7672 3.834 22.4668C4.03234 22.1664 4.3147 21.9303 4.64633 21.7874L11.925 18.6519C12.1215 18.5676 12.3361 18.533 12.5493 18.5515C12.7626 18.5699 12.9679 18.6406 13.1469 18.7574C13.3259 18.8742 13.4728 19.0334 13.5746 19.2206C13.6764 19.4078 13.7299 19.6172 13.7302 19.83V19.8649C13.73 20.1242 13.6508 20.3774 13.5032 20.5913C13.3555 20.8051 13.1462 20.9695 12.9028 21.0628L6.62372 23.4671L12.9116 25.9278C13.1524 26.0225 13.359 26.187 13.5047 26.3999C13.6503 26.6127 13.7283 26.8642 13.7285 27.1216V27.1216Z" fill="#287ECE"/>
<path d="M19.4784 15.7564C19.1692 15.6818 18.8429 15.7324 18.5712 15.897C18.2996 16.0615 18.1048 16.3266 18.0297 16.634L14.8297 29.7796C14.7553 30.087 14.8066 30.4112 14.9723 30.6811C15.1381 30.9509 15.4047 31.1445 15.7137 31.2192C15.8065 31.2415 15.9015 31.2527 15.9969 31.2528C16.2664 31.2538 16.5283 31.1642 16.7402 30.9987C16.9521 30.8332 17.1016 30.6014 17.1645 30.3408L20.3641 17.1969C20.4012 17.0445 20.4077 16.8863 20.3832 16.7314C20.3588 16.5765 20.3039 16.4279 20.2216 16.2941C20.1393 16.1603 20.0313 16.044 19.9038 15.9517C19.7763 15.8595 19.6317 15.7931 19.4784 15.7564Z" fill="#287ECE"/>
<path d="M30.5483 25.1621L23.2705 28.3125C23.0739 28.3972 22.8593 28.432 22.6459 28.4138C22.4325 28.3957 22.227 28.3251 22.0479 28.2084C21.8687 28.0917 21.7215 27.9326 21.6195 27.7453C21.5176 27.5581 21.464 27.3486 21.4636 27.1357V27.1174C21.4638 26.8595 21.542 26.6075 21.6881 26.3944C21.8343 26.1813 22.0416 26.0168 22.283 25.9223L28.5905 23.4608L22.2889 21.0371C22.046 20.9434 21.8372 20.779 21.69 20.5654C21.5427 20.3518 21.4638 20.0989 21.4636 19.8399V19.8399C21.4639 19.6272 21.5172 19.418 21.6189 19.2308C21.7205 19.0437 21.8673 18.8846 22.0461 18.7677C22.2248 18.6509 22.4299 18.58 22.6431 18.5613C22.8562 18.5427 23.0706 18.5769 23.2671 18.661L30.5429 21.7816C30.8751 21.9241 31.1582 22.1602 31.3571 22.4607C31.5559 22.7613 31.662 23.1131 31.6621 23.4729V23.4729C31.6621 23.8317 31.5567 24.1827 31.3589 24.4828C31.161 24.7829 30.8793 25.019 30.5483 25.1621V25.1621Z" fill="#287ECE"/>
<path d="M0.776855 34.5833V43.4201C0.776855 43.6365 0.864177 43.8439 1.01961 43.9969C1.17504 44.1499 1.38585 44.2358 1.60567 44.2358H33.377C33.5968 44.2358 33.8076 44.1499 33.9631 43.9969C34.1185 43.8439 34.2058 43.6365 34.2058 43.4201V34.5833H0.776855Z" fill="#316BC2"/>
<path d="M1.61085 1.97333H24.1978L22.9468 0.729736H1.61085C1.38966 0.729736 1.17753 0.817083 1.02113 0.972563C0.864722 1.12804 0.776855 1.33892 0.776855 1.5588V2.80239C0.776855 2.58251 0.864722 2.37164 1.02113 2.21616C1.17753 2.06068 1.38966 1.97333 1.61085 1.97333V1.97333Z" fill="#9AC2FF"/>
<path d="M22.9478 0.729736V11.3003C22.9478 11.5202 23.0356 11.731 23.192 11.8865C23.3484 12.042 23.5606 12.1293 23.7817 12.1293H34.4151L22.9478 0.729736Z" fill="#316BC2"/>
<path d="M14.1451 19.83C14.1447 19.5487 14.074 19.2718 13.9394 19.0242C13.8048 18.7767 13.6105 18.5662 13.3739 18.4118C13.1373 18.2573 12.8658 18.1637 12.5838 18.1392C12.3018 18.1148 12.0181 18.1604 11.7582 18.2718L4.48078 21.4069C4.07412 21.5841 3.72819 21.8753 3.48529 22.2447C3.24239 22.6142 3.11304 23.0461 3.11304 23.4875C3.11304 23.9288 3.24239 24.3607 3.48529 24.7302C3.72819 25.0996 4.07412 25.3908 4.48078 25.568L11.7582 28.7035C12.0181 28.815 12.3018 28.8607 12.5839 28.8363C12.866 28.8119 13.1375 28.7183 13.3742 28.5638C13.6108 28.4093 13.8052 28.1989 13.9398 27.9513C14.0745 27.7037 14.1451 27.4267 14.1455 27.1453V27.1216C14.1468 26.7804 14.0441 26.4468 13.851 26.1647C13.6578 25.8826 13.3832 25.6653 13.0634 25.5415L7.7717 23.4688L13.0509 21.4496C13.3768 21.3216 13.6559 21.0982 13.8513 20.809C14.0467 20.5198 14.1491 20.1784 14.1451 19.83V19.83ZM12.7515 20.6761L6.47235 23.0804C6.39392 23.1104 6.32644 23.1632 6.27874 23.232C6.23104 23.3007 6.20535 23.3822 6.20503 23.4657C6.20471 23.5493 6.22979 23.6309 6.27697 23.7001C6.32415 23.7692 6.39123 23.8225 6.46943 23.8531L12.759 26.3141C12.9221 26.3777 13.0622 26.4889 13.1607 26.633C13.2592 26.7771 13.3116 26.9474 13.3111 27.1216V27.144C13.3107 27.288 13.2745 27.4297 13.2055 27.5563C13.1366 27.6829 13.0371 27.7906 12.916 27.8696C12.795 27.9486 12.6561 27.9966 12.5118 28.0092C12.3675 28.0217 12.2223 27.9985 12.0893 27.9416L4.81229 24.8073C4.55483 24.6944 4.33594 24.5096 4.18228 24.2752C4.02862 24.0409 3.9468 23.7672 3.9468 23.4875C3.9468 23.2077 4.02862 22.934 4.18228 22.6997C4.33594 22.4654 4.55483 22.2805 4.81229 22.1676L12.0893 19.0325C12.1983 18.9866 12.3155 18.9628 12.434 18.9624C12.5524 18.9621 12.6697 18.9852 12.779 19.0305C12.8884 19.0757 12.9875 19.1422 13.0707 19.2261C13.1539 19.3099 13.2194 19.4093 13.2634 19.5186C13.3075 19.6279 13.3291 19.7449 13.3272 19.8626C13.3252 19.9803 13.2996 20.0965 13.2519 20.2042C13.2043 20.312 13.1354 20.4093 13.0495 20.4903C12.9636 20.5713 12.8623 20.6345 12.7515 20.6761V20.6761Z" fill="#2C3160"/>
<path d="M19.5762 15.3535C19.3698 15.3037 19.1556 15.2949 18.9458 15.3275C18.736 15.3601 18.5346 15.4335 18.3534 15.5435C18.1721 15.6535 18.0144 15.7979 17.8893 15.9685C17.7642 16.1391 17.6741 16.3326 17.6243 16.5378L14.4243 29.6817C14.3743 29.8869 14.3655 30.0998 14.3984 30.3083C14.4312 30.5169 14.505 30.7169 14.6156 30.8971C14.7262 31.0772 14.8715 31.234 15.043 31.3584C15.2145 31.4827 15.4091 31.5723 15.6154 31.6219C15.8218 31.6716 16.036 31.6803 16.2457 31.6477C16.4555 31.6151 16.6567 31.5417 16.838 31.4317C17.0192 31.3218 17.1769 31.1774 17.302 31.0069C17.4271 30.8363 17.5172 30.643 17.5672 30.4378L20.7672 17.2935C20.8677 16.8792 20.7987 16.4423 20.5754 16.0786C20.3521 15.7148 19.9928 15.4541 19.5762 15.3535V15.3535ZM19.957 17.0982L16.7569 30.243C16.707 30.443 16.5797 30.6153 16.4027 30.7227C16.2258 30.83 16.0134 30.8636 15.8116 30.8163C15.6101 30.7674 15.4362 30.6411 15.3281 30.465C15.22 30.289 15.1865 30.0775 15.2349 29.877L18.4349 16.7326C18.4586 16.6331 18.5019 16.5392 18.5623 16.4564C18.6226 16.3736 18.6989 16.3035 18.7867 16.2502C18.8745 16.1968 18.972 16.1613 19.0737 16.1456C19.1753 16.13 19.2791 16.1345 19.379 16.1589C19.5806 16.2078 19.7545 16.3341 19.8626 16.5101C19.9708 16.6862 20.0044 16.8976 19.9561 17.0982H19.957Z" fill="#2C3160"/>
<path d="M21.0463 27.1353C21.0461 27.4173 21.1165 27.6949 21.2512 27.943C21.3859 28.1912 21.5807 28.4021 21.818 28.5567C22.0552 28.7112 22.3275 28.8046 22.6102 28.8283C22.8928 28.8521 23.177 28.8055 23.437 28.6927L30.7148 25.5422C31.1207 25.3665 31.466 25.0767 31.7083 24.7084C31.9507 24.3401 32.0794 23.9094 32.0786 23.4693C32.0778 23.0293 31.9477 22.599 31.7041 22.2315C31.4605 21.864 31.1142 21.5754 30.7077 21.4011L23.4336 18.2805C23.224 18.1845 22.997 18.1316 22.7663 18.1252C22.5356 18.1187 22.306 18.1588 22.0912 18.2429C21.8765 18.3271 21.6812 18.4536 21.5169 18.6148C21.3527 18.776 21.223 18.9686 21.1357 19.181C21.0483 19.3933 21.0052 19.6211 21.0088 19.8505C21.0123 20.0799 21.0626 20.3062 21.1565 20.5158C21.2505 20.7254 21.3861 20.9139 21.5553 21.0699C21.7245 21.226 21.9237 21.3464 22.141 21.4239L27.4443 23.4638L22.133 25.5364C21.8098 25.6613 21.5325 25.8813 21.3383 26.167C21.1442 26.4527 21.0423 26.7905 21.0463 27.1353ZM22.4349 26.3062L28.7424 23.8468C28.8207 23.8165 28.888 23.7634 28.9354 23.6945C28.9829 23.6256 29.0083 23.544 29.0083 23.4604C29.0083 23.3769 28.9829 23.2953 28.9354 23.2264C28.888 23.1575 28.8207 23.1044 28.7424 23.0741L22.4395 20.6508C22.2745 20.5881 22.1326 20.4769 22.0327 20.3321C21.9328 20.1872 21.8796 20.0156 21.8803 19.8399C21.8812 19.61 21.9732 19.3896 22.1365 19.2267C22.2997 19.0637 22.521 18.9713 22.7523 18.9694C22.8723 18.97 22.9909 18.9948 23.1009 19.0424L30.377 22.163C30.6342 22.2732 30.8533 22.4558 31.0074 22.6883C31.1615 22.9208 31.2439 23.193 31.2444 23.4714C31.2449 23.7498 31.1635 24.0223 31.0102 24.2553C30.8569 24.4883 30.6384 24.6716 30.3816 24.7828L23.1038 27.9332C22.971 27.9921 22.8253 28.0166 22.6804 28.0043C22.5355 27.9921 22.3961 27.9435 22.2752 27.8632C22.141 27.7739 22.0337 27.6499 21.9649 27.5046C21.8962 27.3593 21.8685 27.1981 21.8849 27.0384C21.9013 26.8786 21.9612 26.7264 22.0581 26.5979C22.155 26.4694 22.2853 26.3696 22.4349 26.3091V26.3062Z" fill="#2C3160"/>
<path d="M34.6926 11.8193L23.2415 0.436643C23.1633 0.358898 23.0572 0.315209 22.9467 0.315186H1.61109C1.27931 0.315186 0.961118 0.446206 0.726513 0.679425C0.491907 0.912644 0.360107 1.22896 0.360107 1.55878V43.5645C0.360107 43.8943 0.491907 44.2106 0.726513 44.4438C0.961118 44.677 1.27931 44.8081 1.61109 44.8081H33.5805C33.9122 44.8081 34.2304 44.677 34.465 44.4438C34.6996 44.2106 34.8314 43.8943 34.8314 43.5645V31.1633C34.8314 31.0534 34.7875 30.948 34.7093 30.8702C34.6311 30.7925 34.525 30.7488 34.4144 30.7488C34.3039 30.7488 34.1978 30.7925 34.1196 30.8702C34.0414 30.948 33.9974 31.0534 33.9974 31.1633V34.1687H1.1941V1.55878C1.1941 1.44884 1.23803 1.3434 1.31623 1.26566C1.39443 1.18792 1.5005 1.14425 1.61109 1.14425H22.5297V11.3003C22.5297 11.6301 22.6615 11.9464 22.8961 12.1796C23.1307 12.4128 23.4489 12.5439 23.7806 12.5439H33.997V22.9764C33.997 23.0863 34.041 23.1917 34.1192 23.2695C34.1974 23.3472 34.3034 23.3909 34.414 23.3909C34.5246 23.3909 34.6307 23.3472 34.7089 23.2695C34.7871 23.1917 34.831 23.0863 34.831 22.9764V12.1285C34.8311 12.0702 34.8189 12.0125 34.795 11.9592C34.7711 11.9059 34.7362 11.8582 34.6926 11.8193ZM33.9974 34.9978V43.5645C33.9974 43.6744 33.9535 43.7798 33.8753 43.8576C33.7971 43.9353 33.691 43.979 33.5805 43.979H1.61109C1.5005 43.979 1.39443 43.9353 1.31623 43.8576C1.23803 43.7798 1.1941 43.6744 1.1941 43.5645V34.9978H33.9974ZM23.3641 11.3003V1.73081L33.407 11.7148H23.7806C23.6701 11.7148 23.564 11.6711 23.4858 11.5934C23.4076 11.5156 23.3637 11.4102 23.3637 11.3003H23.3641Z" fill="#2C3160"/>
<path d="M34.4148 24.6345C34.3042 24.6345 34.1981 24.6782 34.1199 24.7559C34.0417 24.8337 33.9978 24.9391 33.9978 25.0491V29.1595C33.9978 29.2695 34.0417 29.3749 34.1199 29.4527C34.1981 29.5304 34.3042 29.5741 34.4148 29.5741C34.5254 29.5741 34.6315 29.5304 34.7097 29.4527C34.7879 29.3749 34.8318 29.2695 34.8318 29.1595V25.0491C34.8318 24.9391 34.7879 24.8337 34.7097 24.7559C34.6315 24.6782 34.5254 24.6345 34.4148 24.6345Z" fill="#2C3160"/>
</svg>
