<svg width="30" height="26" viewBox="0 0 30 26" fill="none" xmlns="http://www.w3.org/2000/svg">
<path d="M16.9886 26C16.4581 26 16.0717 25.8375 15.8295 25.5125C15.5873 25.1875 15.5585 24.7867 15.743 24.31L20.8292 11.635C20.9676 11.2883 21.2214 10.9958 21.5904 10.7575C21.9595 10.5192 22.3401 10.4 22.7323 10.4C23.1244 10.4 23.5108 10.5192 23.8914 10.7575C24.272 10.9958 24.5315 11.2883 24.6699 11.635L29.8599 24.18C30.0675 24.6783 30.0444 25.1062 29.7907 25.4637C29.5369 25.8212 29.1102 26 28.5105 26C28.2567 26 28.0145 25.9242 27.7839 25.7725C27.5532 25.6208 27.3917 25.4258 27.2995 25.1875L26.1577 21.905H19.5144L18.1996 25.22C18.1074 25.4367 17.9459 25.6208 17.7152 25.7725C17.4846 25.9242 17.2424 26 16.9886 26ZM20.2756 19.63H25.1889L22.7669 13.325H22.6977L20.2756 19.63ZM8.61542 8.515C8.96142 9.07833 9.34202 9.62542 9.75722 10.1562C10.1724 10.6871 10.6222 11.2342 11.1066 11.7975C12.1446 10.7792 13.0096 9.72292 13.7016 8.62875C14.3936 7.53458 14.9818 6.39167 15.4662 5.2H1.384C0.991869 5.2 0.663168 5.07542 0.397901 4.82625C0.132634 4.57708 0 4.26833 0 3.9C0 3.53167 0.132634 3.22292 0.397901 2.97375C0.663168 2.72458 0.991869 2.6 1.384 2.6H9.68802V1.3C9.68802 0.931667 9.82066 0.622917 10.0859 0.37375C10.3512 0.124583 10.6799 0 11.072 0C11.4642 0 11.7929 0.124583 12.0581 0.37375C12.3234 0.622917 12.456 0.931667 12.456 1.3V2.6H20.76C21.1522 2.6 21.4809 2.72458 21.7461 2.97375C22.0114 3.22292 22.1441 3.53167 22.1441 3.9C22.1441 4.26833 22.0114 4.57708 21.7461 4.82625C21.4809 5.07542 21.1522 5.2 20.76 5.2H18.2342C17.7268 6.695 17.0521 8.16292 16.2101 9.60375C15.3682 11.0446 14.336 12.415 13.1134 13.715L16.5042 16.9325L15.4662 19.565L11.072 15.6L5.08621 21.2225C4.83248 21.4608 4.52108 21.58 4.15201 21.58C3.78294 21.58 3.47154 21.45 3.21781 21.19C2.94101 20.9517 2.80261 20.6592 2.80261 20.3125C2.80261 19.9658 2.94101 19.6625 3.21781 19.4025L9.30742 13.6825C8.70769 13.0108 8.14255 12.3337 7.61202 11.6512C7.08148 10.9687 6.59708 10.27 6.15881 9.555C5.88201 9.07833 5.85895 8.66667 6.08961 8.32C6.32028 7.97333 6.73548 7.8 7.33522 7.8C7.58895 7.8 7.83692 7.87042 8.07912 8.01125C8.32132 8.15208 8.50009 8.32 8.61542 8.515Z" fill="url(#paint0_linear_98_5)"/>
<defs>
<linearGradient id="paint0_linear_98_5" x1="-0.121746" y1="26.0448" x2="25.6586" y2="-3.7018" gradientUnits="userSpaceOnUse">
<stop stop-color="#6C9BE0"/>
<stop offset="1" stop-color="#1B2CC7"/>
</linearGradient>
</defs>
</svg>
