<svg width="65" height="65" viewBox="0 0 65 65" fill="none" xmlns="http://www.w3.org/2000/svg">
<path d="M40.8108 14.7985C38.5666 14.6973 37.8905 14.676 32.2043 14.676C26.5181 14.676 25.8446 14.6973 23.6004 14.7985C17.8237 15.062 15.1323 17.7986 14.8714 23.5274C14.7676 25.7742 14.7437 26.4477 14.7437 32.134C14.7437 37.8202 14.7676 38.4937 14.8688 40.7405C15.1323 46.4586 17.813 49.2059 23.5978 49.4694C25.8419 49.5706 26.5181 49.5946 32.2043 49.5946C37.8931 49.5946 38.5666 49.5733 40.8108 49.4721C46.5875 49.2086 49.2762 46.4666 49.5397 40.7431C49.6409 38.4963 49.6622 37.8228 49.6622 32.1366C49.6622 26.4504 49.6409 25.7769 49.5397 23.5328C49.2762 17.8013 46.5822 15.062 40.8108 14.7985ZM32.2043 43.0698C26.164 43.0698 21.2684 38.1742 21.2684 32.134C21.2684 26.0937 26.1667 21.1981 32.2043 21.1981C38.2419 21.1981 43.1401 26.0937 43.1401 32.134C43.1401 38.1742 38.2445 43.0698 32.2043 43.0698ZM43.574 23.3225C42.1631 23.3225 41.0184 22.1778 41.0184 20.7669C41.0184 19.356 42.1631 18.2113 43.574 18.2113C44.9849 18.2113 46.1296 19.356 46.1296 20.7669C46.1296 22.1778 44.9849 23.3225 43.574 23.3225ZM39.304 32.134C39.304 36.0552 36.1255 39.2337 32.2043 39.2337C28.283 39.2337 25.1045 36.0552 25.1045 32.134C25.1045 28.2127 28.283 25.0342 32.2043 25.0342C36.1255 25.0342 39.304 28.2127 39.304 32.134ZM50.8388 0.188965H13.5697C6.21968 0.188965 0.259277 6.14937 0.259277 13.4994V50.7685C0.259277 58.1185 6.21968 64.0789 13.5697 64.0789H50.8388C58.1915 64.0789 64.1493 58.1185 64.1493 50.7685V13.4994C64.1493 6.14937 58.1915 0.188965 50.8388 0.188965V0.188965ZM53.3731 40.9135C53.0218 48.6575 48.7118 52.9488 40.9865 53.3028C38.7131 53.4067 37.989 53.4306 32.2043 53.4306C26.4196 53.4306 25.6981 53.4067 23.4247 53.3028C15.6834 52.9488 11.3921 48.6495 11.0354 40.9135C10.9316 38.6427 10.9076 37.9187 10.9076 32.134C10.9076 26.3519 10.9316 25.6252 11.0354 23.3544C11.3921 15.6131 15.6887 11.3191 23.4247 10.9677C25.6981 10.8613 26.4196 10.8373 32.2043 10.8373C37.989 10.8373 38.7131 10.8613 40.9865 10.9651C48.7278 11.3191 53.0271 15.6264 53.3731 23.3517C53.477 25.6252 53.5009 26.3519 53.5009 32.134C53.5009 37.9187 53.477 38.6427 53.3731 40.9135Z" fill="url(#paint0_linear_14_362)"/>
<defs>
<linearGradient id="paint0_linear_14_362" x1="-1.41598e-06" y1="64.189" x2="64" y2="0.188963" gradientUnits="userSpaceOnUse">
<stop stop-color="#6C9BE0"/>
<stop offset="1" stop-color="#1B2CC7"/>
</linearGradient>
</defs>
</svg>
