<svg width="37" height="47" viewBox="0 0 37 47" fill="none" xmlns="http://www.w3.org/2000/svg">
<path d="M36.5011 14.099L25.1021 2.76045C25.0242 2.68297 24.9186 2.63943 24.8084 2.6394H3.55867C3.22823 2.6394 2.91133 2.76998 2.67767 3.00241C2.44401 3.23483 2.31274 3.55007 2.31274 3.87877V45.7416C2.31274 46.0703 2.44401 46.3855 2.67767 46.6179C2.91133 46.8504 3.22823 46.9809 3.55867 46.9809H35.3993C35.7297 46.9809 36.0466 46.8504 36.2803 46.6179C36.5139 46.3855 36.6452 46.0703 36.6452 45.7416V14.4121C36.6452 14.3527 36.6324 14.2939 36.6075 14.2399C36.5826 14.1859 36.5463 14.1378 36.5011 14.099V14.099Z" fill="#E6E7E8"/>
<path d="M34.6988 12.7951L23.2314 1.39551H1.89625C1.67506 1.39551 1.46293 1.48285 1.30653 1.63833C1.15012 1.79381 1.06226 2.00469 1.06226 2.22457V44.2307C1.06226 44.4505 1.15012 44.6614 1.30653 44.8169C1.46293 44.9724 1.67506 45.0597 1.89625 45.0597H33.8656C34.0868 45.0597 34.2989 44.9724 34.4553 44.8169C34.6117 44.6614 34.6996 44.4505 34.6996 44.2307V12.7943L34.6988 12.7951Z" fill="#D4FBFF"/>
<path d="M13.8216 30.3538C13.9887 30.5282 14.0818 30.7597 14.0818 31.0005C14.0818 31.2413 13.9887 31.4728 13.8216 31.6472C13.6395 31.7978 13.408 31.8766 13.1711 31.8685H11.7775C11.4744 31.8879 11.1705 31.8454 10.8844 31.7438C10.5984 31.6421 10.3362 31.4834 10.1141 31.2774C9.91135 31.056 9.75522 30.7965 9.65495 30.5141C9.55469 30.2317 9.51232 29.9323 9.53035 29.6334V26.0498C9.56142 25.6741 9.47036 25.2985 9.27056 24.9782C9.15101 24.8532 9.00669 24.7542 8.84671 24.6874C8.68673 24.6206 8.51457 24.5875 8.34108 24.5902C8.22081 24.5952 8.10083 24.575 7.98891 24.531C7.87699 24.4869 7.77562 24.42 7.69138 24.3345C7.60713 24.2491 7.54189 24.147 7.49987 24.0348C7.45785 23.9227 7.43999 23.803 7.44745 23.6836C7.44245 23.5689 7.4604 23.4543 7.50027 23.3465C7.54014 23.2387 7.60113 23.1398 7.67972 23.0556C7.85674 22.8863 8.09382 22.7934 8.33941 22.7969C8.5129 22.7996 8.68506 22.7665 8.84504 22.6997C9.00502 22.633 9.14934 22.5339 9.26889 22.4089C9.46874 22.0886 9.55981 21.713 9.52868 21.3374V17.7558C9.51065 17.4569 9.55302 17.1575 9.65328 16.8751C9.75355 16.5927 9.90968 16.3332 10.1125 16.1118C10.3346 15.9058 10.5967 15.7471 10.8827 15.6454C11.1688 15.5438 11.4727 15.5013 11.7759 15.5207H13.1695C13.4063 15.5126 13.6378 15.5914 13.82 15.742C13.987 15.9164 14.0802 16.1479 14.0802 16.3887C14.0802 16.6295 13.987 16.861 13.82 17.0354C13.638 17.1863 13.4064 17.2653 13.1695 17.2571H12.5765C12.4711 17.2493 12.3652 17.2624 12.265 17.2957C12.1647 17.329 12.0722 17.3819 11.9927 17.4511C11.9209 17.5365 11.8667 17.6351 11.8332 17.7413C11.7997 17.8475 11.7876 17.9592 11.7975 18.07V21.6168C11.8147 22.1174 11.6608 22.6091 11.361 23.0117C11.1126 23.3588 10.7463 23.6048 10.3297 23.7043C10.744 23.8029 11.1092 24.0455 11.3593 24.3883C11.6599 24.7869 11.814 25.2758 11.7959 25.7737V29.3204C11.7859 29.4313 11.798 29.543 11.8315 29.6492C11.865 29.7553 11.9192 29.8539 11.991 29.9393C12.0705 30.0086 12.163 30.0614 12.2633 30.0947C12.3635 30.128 12.4694 30.1412 12.5748 30.1333H13.1695C13.4068 30.1244 13.639 30.203 13.8216 30.3538V30.3538Z" fill="#287ECE"/>
<path d="M17.0686 21.6805C16.9401 21.5503 16.8393 21.3957 16.7723 21.2259C16.7052 21.0561 16.6733 20.8746 16.6783 20.6923C16.6783 20.3295 16.8233 19.9815 17.0813 19.725C17.3394 19.4685 17.6894 19.3243 18.0544 19.3243C18.4193 19.3243 18.7694 19.4685 19.0274 19.725C19.2855 19.9815 19.4305 20.3295 19.4305 20.6923C19.4355 20.8746 19.4035 21.0561 19.3365 21.2259C19.2694 21.3957 19.1686 21.5503 19.0402 21.6805C18.7763 21.9352 18.423 22.0776 18.0552 22.0776C17.6874 22.0776 17.3342 21.9352 17.0703 21.6805H17.0686ZM19.0385 26.3453C19.3243 26.735 19.4625 27.2126 19.4288 27.6937C19.4362 28.2543 19.3316 28.8108 19.121 29.3309C18.9104 29.851 18.5981 30.3244 18.202 30.7235C18.1361 30.7964 18.0561 30.8552 17.9667 30.8965C17.8774 30.9377 17.7805 30.9606 17.682 30.9635C17.503 30.9661 17.3298 30.8999 17.1987 30.7787C17.1343 30.7239 17.0827 30.6559 17.0474 30.5793C17.0121 30.5027 16.994 30.4194 16.9944 30.3351C16.9994 30.1752 17.0659 30.0232 17.1804 29.9106C17.5386 29.5406 17.789 29.0808 17.9051 28.5804C17.5695 28.555 17.2552 28.4074 17.0223 28.1659C16.9085 28.0464 16.8195 27.9058 16.7605 27.7521C16.7014 27.5984 16.6735 27.4345 16.6783 27.2701C16.6731 27.0885 16.7041 26.9077 16.7695 26.7381C16.8349 26.5685 16.9334 26.4134 17.0594 26.2818C17.1903 26.1506 17.3469 26.0476 17.5197 25.9793C17.6924 25.911 17.8774 25.8789 18.0632 25.885C18.2489 25.8911 18.4314 25.9352 18.5993 26.0146C18.7671 26.094 18.9166 26.207 19.0385 26.3465V26.3453Z" fill="#287ECE"/>
<path d="M28.4275 23.0568C28.5059 23.1409 28.5668 23.2396 28.6068 23.3471C28.6467 23.4547 28.6648 23.569 28.6602 23.6836C28.6693 23.9165 28.5895 24.1443 28.4367 24.3211C28.35 24.4089 28.246 24.4781 28.1312 24.5241C28.0164 24.5702 27.8932 24.5923 27.7695 24.5889C27.596 24.5862 27.4238 24.6193 27.2639 24.6861C27.1039 24.7529 26.9596 24.8519 26.84 24.9769C26.64 25.2971 26.5489 25.6728 26.5802 26.0485V29.6321C26.5983 29.931 26.5559 30.2305 26.4556 30.5128C26.3554 30.7952 26.1992 31.0547 25.9964 31.2761C25.7744 31.4821 25.5123 31.6408 25.2264 31.7424C24.9404 31.8441 24.6365 31.8866 24.3335 31.8672H22.9361C22.6993 31.8753 22.4678 31.7965 22.2856 31.6459C22.1186 31.4715 22.0254 31.24 22.0254 30.9992C22.0254 30.7584 22.1186 30.5269 22.2856 30.3526C22.4676 30.2016 22.6992 30.1227 22.9361 30.1308H23.5312C23.6366 30.1388 23.7425 30.1258 23.8428 30.0924C23.943 30.0591 24.0356 30.0062 24.115 29.9368C24.1868 29.8515 24.2411 29.7529 24.2746 29.6467C24.3081 29.5405 24.3201 29.4287 24.3101 29.3179V25.7724C24.2924 25.2747 24.4471 24.7861 24.7484 24.3883C24.9986 24.0451 25.3644 23.8026 25.7792 23.7047C25.3626 23.6054 24.9964 23.3593 24.7484 23.012C24.4481 22.6096 24.294 22.1179 24.3114 21.6171V18.0692C24.3214 17.9583 24.3093 17.8466 24.2758 17.7404C24.2423 17.6342 24.1881 17.5356 24.1162 17.4503C24.0368 17.3809 23.9443 17.3279 23.844 17.2946C23.7438 17.2613 23.6378 17.2483 23.5324 17.2563H22.9361C22.6992 17.2644 22.4676 17.1854 22.2856 17.0345C22.1186 16.8601 22.0254 16.6286 22.0254 16.3878C22.0254 16.1471 22.1186 15.9155 22.2856 15.7412C22.4678 15.5905 22.6993 15.5117 22.9361 15.5198H24.3301C24.6332 15.5005 24.9371 15.5429 25.223 15.6446C25.509 15.7463 25.7711 15.9049 25.9931 16.1109C26.1959 16.3323 26.352 16.5919 26.4523 16.8742C26.5526 17.1566 26.5949 17.4561 26.5769 17.755V21.3386C26.5455 21.7142 26.6366 22.0899 26.8367 22.4101C26.9562 22.5351 27.1006 22.6342 27.2605 22.7009C27.4205 22.7677 27.5927 22.8008 27.7662 22.7981C28.0123 22.7942 28.25 22.8872 28.4275 23.0568V23.0568Z" fill="#287ECE"/>
<path d="M1.06226 35.249V44.2307C1.06226 44.4505 1.15012 44.6614 1.30653 44.8169C1.46293 44.9724 1.67506 45.0597 1.89625 45.0597H33.8656C34.0868 45.0597 34.2989 44.9724 34.4553 44.8169C34.6117 44.6614 34.6996 44.4505 34.6996 44.2307V35.249H1.06226Z" fill="#316BC2"/>
<path d="M1.89625 2.6391H24.4828L23.2318 1.39551H1.89625C1.67506 1.39551 1.46293 1.48285 1.30653 1.63833C1.15012 1.79381 1.06226 2.00469 1.06226 2.22457V3.46816C1.06226 3.24828 1.15012 3.03741 1.30653 2.88193C1.46293 2.72645 1.67506 2.6391 1.89625 2.6391V2.6391Z" fill="#9AC2FF"/>
<path d="M23.2327 1.39551V11.9661C23.2327 12.1859 23.3205 12.3968 23.4769 12.5523C23.6333 12.7078 23.8455 12.7951 24.0667 12.7951H34.7L23.2327 1.39551Z" fill="#316BC2"/>
<path d="M11.6895 23.2637C12.0456 22.7887 12.23 22.2081 12.2128 21.6159V18.0692C12.2128 17.8342 12.2687 17.7604 12.2858 17.7434C12.3713 17.6854 12.4748 17.6597 12.5777 17.6708H13.1723C13.5089 17.6794 13.8369 17.5649 14.0943 17.3492C14.2228 17.2238 14.3248 17.0742 14.3945 16.9091C14.4642 16.7441 14.5001 16.5669 14.5001 16.3879C14.5001 16.2089 14.4642 16.0317 14.3945 15.8666C14.3248 15.7016 14.2228 15.552 14.0943 15.4266C13.8369 15.211 13.5088 15.0967 13.1723 15.1053H11.7775C11.4191 15.0856 11.0603 15.1389 10.7233 15.2618C10.3863 15.3848 10.0781 15.5749 9.81761 15.8204C9.57601 16.0799 9.38908 16.3848 9.26784 16.7172C9.14659 17.0496 9.09348 17.4027 9.11164 17.7558V21.3394C9.14219 21.623 9.08208 21.9089 8.93984 22.1565C8.77075 22.3086 8.54939 22.3903 8.32143 22.3849C7.96842 22.3847 7.62964 22.5233 7.37902 22.7704C7.26301 22.8925 7.17247 23.0363 7.11264 23.1934C7.05281 23.3505 7.02486 23.5178 7.03042 23.6857C7.02321 23.8564 7.05085 24.0268 7.11167 24.1866C7.1725 24.3464 7.26524 24.4923 7.38432 24.6155C7.50339 24.7387 7.64633 24.8367 7.80452 24.9035C7.96271 24.9704 8.13288 25.0046 8.30475 25.0043C8.53805 24.9966 8.76537 25.0785 8.93942 25.2331C9.082 25.4808 9.14227 25.7669 9.11164 26.0506V29.6342C9.09346 29.9872 9.14652 30.3403 9.26769 30.6726C9.38886 31.0049 9.5757 31.3098 9.8172 31.5692C10.0778 31.8147 10.386 32.0047 10.723 32.1275C11.06 32.2504 11.4187 32.3036 11.7771 32.2839H13.1707C13.5072 32.2925 13.8352 32.1782 14.0926 31.9626C14.2211 31.8372 14.3232 31.6876 14.3928 31.5226C14.4625 31.3575 14.4984 31.1803 14.4984 31.0013C14.4984 30.8223 14.4625 30.6452 14.3928 30.4801C14.3232 30.315 14.2211 30.1654 14.0926 30.04C13.8353 29.8243 13.5072 29.7099 13.1707 29.7184H12.5765C12.4736 29.7295 12.37 29.7038 12.2846 29.6458C12.2675 29.6288 12.2116 29.555 12.2116 29.32V25.7724C12.2297 25.1819 12.0443 24.6029 11.6862 24.1313C11.5621 23.9721 11.4197 23.8279 11.2617 23.7019C11.4213 23.5732 11.5649 23.4261 11.6895 23.2637V23.2637ZM11.3788 21.6159C11.3963 22.025 11.2728 22.4278 11.0286 22.7576C10.84 23.0267 10.5592 23.2184 10.2388 23.2964C10.1458 23.3166 10.0626 23.3678 10.0029 23.4415C9.94324 23.5151 9.9107 23.6069 9.9107 23.7014C9.9107 23.796 9.94324 23.8878 10.0029 23.9614C10.0626 24.0351 10.1458 24.0863 10.2388 24.1064C10.5589 24.1841 10.8402 24.3738 11.0311 24.6408C11.2743 24.9663 11.3971 25.3653 11.3788 25.7704V29.3171C11.3677 29.4825 11.3901 29.6484 11.4446 29.805C11.4991 29.9617 11.5846 30.1059 11.6962 30.2291C11.814 30.3378 11.9527 30.4218 12.104 30.476C12.2552 30.5302 12.4159 30.5535 12.5765 30.5445H13.1711C13.3083 30.5366 13.4436 30.5801 13.5501 30.6664C13.6245 30.7611 13.6649 30.8779 13.6649 30.998C13.6649 31.1182 13.6245 31.2349 13.5501 31.3296C13.4436 31.416 13.3083 31.4594 13.1711 31.4515H11.7775C11.5298 31.4705 11.2807 31.4389 11.0458 31.3585C10.8108 31.2782 10.5949 31.1508 10.4114 30.9843C10.2465 30.8013 10.1203 30.5871 10.0403 30.3546C9.96025 30.1221 9.92807 29.876 9.94563 29.6309V26.0498C9.98065 25.5815 9.85833 25.115 9.59786 24.7233C9.44144 24.5504 9.25009 24.4124 9.03632 24.3181C8.82254 24.2238 8.59116 24.1754 8.3573 24.1761C8.29061 24.1831 8.22319 24.1752 8.16 24.1529C8.0968 24.1306 8.03944 24.0945 7.99214 24.0473C7.94485 24 7.90882 23.9428 7.88671 23.8799C7.8646 23.8169 7.85698 23.7499 7.86441 23.6836C7.8591 23.622 7.86666 23.5599 7.88661 23.5012C7.90656 23.4426 7.93846 23.3887 7.98033 23.3429C8.08924 23.2495 8.23041 23.202 8.37398 23.2102C8.60514 23.2095 8.83356 23.1604 9.04441 23.0662C9.25526 22.972 9.44383 22.8348 9.59786 22.6635C9.85842 22.2718 9.98075 21.8052 9.94563 21.337V17.7558C9.92805 17.5108 9.96018 17.2648 10.0401 17.0323C10.1201 16.7999 10.2462 16.5858 10.411 16.4028C10.5946 16.2362 10.8105 16.1088 11.0456 16.0284C11.2806 15.948 11.5297 15.9163 11.7775 15.9352H13.1711C13.3083 15.9273 13.4436 15.9708 13.5501 16.0571C13.6245 16.1518 13.6649 16.2685 13.6649 16.3887C13.6649 16.5089 13.6245 16.6256 13.5501 16.7203C13.4435 16.8065 13.3083 16.8499 13.1711 16.8422H12.5765C12.416 16.8333 12.2553 16.8566 12.1041 16.9107C11.9529 16.9649 11.8141 17.0487 11.6962 17.1572C11.5847 17.2805 11.4992 17.4247 11.4447 17.5813C11.3902 17.7379 11.3678 17.9038 11.3788 18.0692V21.6159Z" fill="#2C3160"/>
<path d="M18.0536 18.9107C17.8166 18.905 17.5808 18.9472 17.3607 19.0348C17.1406 19.1223 16.9406 19.2534 16.773 19.4201C16.6053 19.5868 16.4735 19.7855 16.3854 20.0044C16.2973 20.2232 16.2548 20.4575 16.2605 20.6931C16.2551 20.9292 16.2973 21.1639 16.3848 21.3834C16.4723 21.603 16.6031 21.8028 16.7697 21.9711C17.1121 22.3056 17.5729 22.493 18.053 22.493C18.533 22.493 18.9939 22.3056 19.3363 21.9711C19.5028 21.8028 19.6336 21.6029 19.721 21.3834C19.8083 21.1639 19.8505 20.9292 19.845 20.6931C19.8507 20.4575 19.8082 20.2232 19.7202 20.0044C19.6321 19.7855 19.5002 19.5868 19.3326 19.4201C19.1649 19.2534 18.9649 19.1223 18.7448 19.0348C18.5247 18.9472 18.289 18.905 18.0519 18.9107H18.0536ZM18.7404 21.3908C18.5551 21.5656 18.3093 21.6631 18.0538 21.6631C17.7983 21.6631 17.5526 21.5656 17.3672 21.3908C17.2766 21.2988 17.2058 21.1894 17.1591 21.0693C17.1123 20.9493 17.0906 20.821 17.0953 20.6923C17.0902 20.5658 17.1114 20.4396 17.1576 20.3215C17.2037 20.2035 17.2738 20.0962 17.3635 20.0063C17.4977 19.8683 17.6706 19.7737 17.8598 19.7351C18.0489 19.6964 18.2453 19.7153 18.4234 19.7895C18.6015 19.8636 18.753 19.9894 18.858 20.1505C18.963 20.3116 19.0166 20.5004 19.0119 20.6923C19.0166 20.821 18.9949 20.9492 18.9483 21.0693C18.9016 21.1893 18.8309 21.2987 18.7404 21.3908V21.3908Z" fill="#2C3160"/>
<path d="M19.3581 26.0783C19.195 25.883 18.9897 25.7267 18.7574 25.6211C18.5252 25.5155 18.2719 25.4634 18.0166 25.4685C17.7814 25.4634 17.5477 25.5075 17.3307 25.5982C17.1138 25.6888 16.9186 25.8239 16.7577 25.9946C16.4289 26.337 16.2504 26.7952 16.2615 27.2684C16.2511 27.7071 16.4161 28.1319 16.7202 28.4499C16.9016 28.6416 17.1251 28.7891 17.3732 28.881C17.2527 29.1587 17.0832 29.4128 16.8728 29.6313C16.6874 29.82 16.5818 30.0722 16.578 30.336C16.5774 30.478 16.6076 30.6185 16.6665 30.748C16.7253 30.8774 16.8115 30.9928 16.9191 31.0863C17.1273 31.2762 17.4 31.3807 17.6826 31.3789C17.8375 31.3763 17.9902 31.3422 18.1315 31.279C18.2727 31.2157 18.3995 31.1244 18.5041 31.0108C18.9366 30.5733 19.2779 30.055 19.5083 29.4859C19.7386 28.9168 19.8535 28.308 19.8464 27.6946C19.8813 27.1153 19.7084 26.5424 19.3585 26.0779L19.3581 26.0783ZM17.9078 30.4309C17.8806 30.4653 17.8465 30.4937 17.8077 30.5142C17.7688 30.5347 17.7261 30.5469 17.6822 30.5499C17.6448 30.5511 17.6076 30.5449 17.5727 30.5316C17.5378 30.5183 17.506 30.4981 17.4791 30.4724C17.4577 30.4566 17.4404 30.436 17.4287 30.4123C17.4169 30.3886 17.411 30.3624 17.4115 30.336C17.4186 30.2818 17.4446 30.2317 17.4849 30.1946C17.8937 29.7707 18.1794 29.2447 18.3118 28.6725C18.3248 28.6153 18.3255 28.5561 18.3138 28.4987C18.302 28.4413 18.2782 28.387 18.2439 28.3394C18.2095 28.2918 18.1654 28.252 18.1144 28.2226C18.0635 28.1932 18.0068 28.1749 17.9482 28.1688C17.7106 28.153 17.4875 28.0495 17.3227 27.8786C17.2451 27.7974 17.1848 27.7015 17.1454 27.5966C17.106 27.4917 17.0883 27.3799 17.0934 27.268C17.0886 27.1394 17.1096 27.0111 17.1552 26.8906C17.2008 26.7701 17.2701 26.6598 17.359 26.5662C17.4494 26.4772 17.5572 26.4075 17.6757 26.3613C17.7942 26.3152 17.9209 26.2935 18.0481 26.2978C18.1753 26.302 18.3003 26.332 18.4154 26.3859C18.5305 26.4399 18.6333 26.5166 18.7176 26.6114C18.9372 26.9279 19.0403 27.3101 19.0095 27.6933C19.0187 28.1995 18.926 28.7024 18.7368 29.1724C18.5476 29.6424 18.2657 30.07 17.9078 30.4301V30.4309Z" fill="#2C3160"/>
<path d="M26.9955 29.6333V26.0497C26.9647 25.7661 27.025 25.4801 27.1677 25.2327C27.3363 25.0806 27.5573 24.9988 27.7849 25.0042C27.9651 25.0064 28.1437 24.9714 28.3096 24.9014C28.4755 24.8314 28.625 24.728 28.7485 24.5976C28.9696 24.3455 29.0869 24.0199 29.0771 23.6856C29.0825 23.5178 29.0544 23.3505 28.9946 23.1934C28.9348 23.0364 28.8444 22.8926 28.7285 22.7703V22.7703C28.4827 22.5267 28.1504 22.3888 27.8032 22.3865C27.5698 22.394 27.3425 22.3118 27.1686 22.1568C27.0258 21.9094 26.9655 21.6234 26.9963 21.3398V17.7558C27.0143 17.4029 26.9612 17.0499 26.8401 16.7177C26.719 16.3855 26.5324 16.0807 26.2912 15.8211C26.0307 15.5756 25.7225 15.3855 25.3855 15.2625C25.0485 15.1395 24.6898 15.0863 24.3313 15.1061H22.9361C22.5996 15.0973 22.2717 15.2116 22.0145 15.4273C21.8859 15.5527 21.7838 15.7023 21.714 15.8673C21.6443 16.0324 21.6084 16.2096 21.6084 16.3886C21.6084 16.5677 21.6443 16.7449 21.714 16.9099C21.7838 17.075 21.8859 17.2246 22.0145 17.3499C22.2716 17.5658 22.5996 17.6803 22.9361 17.6716H23.5311C23.634 17.6603 23.7375 17.6861 23.823 17.7441C23.8401 17.7611 23.896 17.8345 23.896 18.07V21.6167C23.8787 22.2087 24.0631 22.7892 24.4193 23.264C24.5431 23.4263 24.6858 23.5732 24.8446 23.7018C24.6867 23.8278 24.5443 23.9719 24.4206 24.1312C24.0619 24.6025 23.8763 25.1817 23.8947 25.7724V29.3191C23.8947 29.5546 23.8388 29.6279 23.8213 29.6453C23.7358 29.7032 23.6323 29.7288 23.5294 29.7175H22.9361C22.5996 29.7088 22.2716 29.8233 22.0145 30.0391C21.8859 30.1645 21.7838 30.3141 21.714 30.4791C21.6443 30.6442 21.6084 30.8214 21.6084 31.0004C21.6084 31.1795 21.6443 31.3567 21.714 31.5218C21.7838 31.6868 21.8859 31.8364 22.0145 31.9617C22.2718 32.1772 22.5997 32.2915 22.9361 32.283H24.3301C24.6885 32.3027 25.0472 32.2495 25.3842 32.1266C25.7212 32.0038 26.0294 31.8138 26.2899 31.5683C26.5313 31.3088 26.718 31.0039 26.8392 30.6716C26.9603 30.3393 27.0135 29.9863 26.9955 29.6333ZM26.1615 29.6333C26.1791 29.8784 26.1469 30.1246 26.0669 30.3571C25.9869 30.5896 25.8606 30.8037 25.6957 30.9868C25.5123 31.1532 25.2964 31.2806 25.0616 31.3609C24.8267 31.4413 24.5777 31.4729 24.3301 31.4539H22.9361C22.7988 31.4619 22.6636 31.4184 22.557 31.3321C22.4826 31.2373 22.4422 31.1206 22.4422 31.0004C22.4422 30.8803 22.4826 30.7635 22.557 30.6688C22.6636 30.5825 22.7988 30.539 22.9361 30.5469H23.5311C23.6915 30.556 23.8521 30.5327 24.0033 30.4786C24.1545 30.4244 24.2932 30.3405 24.411 30.2319C24.5225 30.1087 24.608 29.9645 24.6625 29.8079C24.717 29.6512 24.7394 29.4853 24.7283 29.3199V25.7724C24.7099 25.367 24.833 24.9678 25.0769 24.6424C25.2678 24.3754 25.5491 24.1859 25.8692 24.1084C25.9622 24.0883 26.0454 24.0371 26.1051 23.9634C26.1647 23.8898 26.1973 23.798 26.1973 23.7034C26.1973 23.6089 26.1647 23.5171 26.1051 23.4435C26.0454 23.3698 25.9622 23.3186 25.8692 23.2985C25.5489 23.2202 25.2683 23.0286 25.0798 22.7596C24.8355 22.4299 24.7119 22.0271 24.7295 21.6179V18.0691C24.7407 17.9038 24.7183 17.7378 24.6638 17.5812C24.6093 17.4246 24.5237 17.2804 24.4122 17.1572C24.2944 17.0486 24.1557 16.9647 24.0045 16.9106C23.8534 16.8565 23.6928 16.8332 23.5324 16.8421H22.9361C22.7988 16.8499 22.6637 16.8064 22.557 16.7203C22.4826 16.6255 22.4422 16.5088 22.4422 16.3886C22.4422 16.2685 22.4826 16.1517 22.557 16.057C22.6636 15.9707 22.7988 15.9272 22.9361 15.9351H24.3301C24.5777 15.9161 24.8267 15.9478 25.0616 16.0281C25.2964 16.1085 25.5123 16.2358 25.6957 16.4023C25.8606 16.5854 25.9869 16.7995 26.0669 17.032C26.1469 17.2645 26.1791 17.5106 26.1615 17.7558V21.3394C26.1264 21.8076 26.2487 22.2742 26.5093 22.6659C26.6656 22.8387 26.8569 22.9767 27.0706 23.071C27.2843 23.1653 27.5156 23.2137 27.7494 23.2131C27.8182 23.208 27.8872 23.2172 27.9522 23.24C28.0172 23.2627 28.0768 23.2986 28.1272 23.3453C28.1689 23.3911 28.2007 23.445 28.2206 23.5035C28.2406 23.5621 28.2482 23.624 28.2431 23.6856C28.2483 23.7508 28.2405 23.8163 28.2202 23.8785C28.1999 23.9407 28.1674 23.9982 28.1247 24.0479C28.0712 24.0941 28.0091 24.1293 27.9419 24.1516C27.8747 24.1738 27.8038 24.1827 27.7332 24.1777C27.502 24.1784 27.2736 24.2274 27.0628 24.3215C26.852 24.4156 26.6634 24.5528 26.5093 24.724C26.2487 25.1157 26.1264 25.5823 26.1615 26.0505V29.6333Z" fill="#2C3160"/>
<path d="M29.5569 34.8345H25.4912C25.3806 34.8345 25.2746 34.8781 25.1964 34.9559C25.1182 35.0336 25.0742 35.1391 25.0742 35.249C25.0742 35.3589 25.1182 35.4644 25.1964 35.5421C25.2746 35.6199 25.3806 35.6635 25.4912 35.6635H29.5569C29.6675 35.6635 29.7736 35.6199 29.8518 35.5421C29.93 35.4644 29.9739 35.3589 29.9739 35.249C29.9739 35.1391 29.93 35.0336 29.8518 34.9559C29.7736 34.8781 29.6675 34.8345 29.5569 34.8345Z" fill="#2C3160"/>
<path d="M34.9715 12.4801L23.5266 1.10241C23.4484 1.02467 23.3424 0.980981 23.2318 0.980957H1.89625C1.56447 0.980957 1.24627 1.11198 1.01167 1.3452C0.777063 1.57842 0.645264 1.89473 0.645264 2.22455V44.2302C0.645264 44.5601 0.777063 44.8764 1.01167 45.1096C1.24627 45.3428 1.56447 45.4738 1.89625 45.4738H33.8656C34.1974 45.4738 34.5156 45.3428 34.7502 45.1096C34.9848 44.8764 35.1166 44.5601 35.1166 44.2302V12.7943C35.1166 12.7346 35.1036 12.6756 35.0786 12.6214C35.0535 12.5672 35.017 12.519 34.9715 12.4801ZM23.6488 2.39658L33.6921 12.3806H24.0658C23.9552 12.3806 23.8491 12.3369 23.7709 12.2591C23.6927 12.1814 23.6488 12.076 23.6488 11.966V2.39658ZM33.8652 44.6448H1.89625C1.78566 44.6448 1.67959 44.6011 1.60139 44.5233C1.52319 44.4456 1.47925 44.3402 1.47925 44.2302V35.6635H23.7189C23.8295 35.6635 23.9355 35.6199 24.0137 35.5421C24.0919 35.4644 24.1359 35.3589 24.1359 35.249C24.1359 35.1391 24.0919 35.0336 24.0137 34.9559C23.9355 34.8781 23.8295 34.8345 23.7189 34.8345H1.47925V2.22455C1.47925 2.11461 1.52319 2.00917 1.60139 1.93143C1.67959 1.85369 1.78566 1.81002 1.89625 1.81002H22.8148V11.966C22.8148 12.2959 22.9466 12.6122 23.1812 12.8454C23.4158 13.0786 23.734 13.2096 24.0658 13.2096H34.2822V34.8345H31.3812C31.2706 34.8345 31.1645 34.8781 31.0863 34.9559C31.0081 35.0336 30.9642 35.1391 30.9642 35.249C30.9642 35.3589 31.0081 35.4644 31.0863 35.5421C31.1645 35.6199 31.2706 35.6635 31.3812 35.6635H34.2826V44.2302C34.2826 44.3402 34.2387 44.4456 34.1605 44.5233C34.0823 44.6011 33.9762 44.6448 33.8656 44.6448H33.8652Z" fill="#2C3160"/>
</svg>
