<svg width="65" height="65" viewBox="0 0 65 65" fill="none" xmlns="http://www.w3.org/2000/svg">
<path d="M50.8388 0.376953H13.5697C6.21968 0.376953 0.259277 6.33736 0.259277 13.6874V50.9565C0.259277 58.3065 6.21968 64.2669 13.5697 64.2669H50.8388C58.1915 64.2669 64.1493 58.3065 64.1493 50.9565V13.6874C64.1493 6.33736 58.1915 0.376953 50.8388 0.376953ZM21.5559 50.9565H13.5697V21.6736H21.5559V50.9565ZM17.5628 18.2981C14.9912 18.2981 12.9042 16.195 12.9042 13.6022C12.9042 11.0093 14.9912 8.90627 17.5628 8.90627C20.1344 8.90627 22.2215 11.0093 22.2215 13.6022C22.2215 16.195 20.137 18.2981 17.5628 18.2981ZM53.5009 50.9565H45.5147V36.0382C45.5147 27.0723 34.8663 27.7511 34.8663 36.0382V50.9565H26.8801V21.6736H34.8663V26.3722C38.5826 19.488 53.5009 18.9796 53.5009 32.9635V50.9565Z" fill="url(#paint0_linear_14_364)"/>
<defs>
<linearGradient id="paint0_linear_14_364" x1="-1.41598e-06" y1="64.377" x2="64" y2="0.376952" gradientUnits="userSpaceOnUse">
<stop stop-color="#6C9BE0"/>
<stop offset="1" stop-color="#1B2CC7"/>
</linearGradient>
</defs>
</svg>
