<svg width="79" height="24" viewBox="0 0 79 24" fill="none" xmlns="http://www.w3.org/2000/svg">
<path d="M0.493408 13.912L13.9334 5.784V9.528L5.58141 14.712L13.9334 19.768V23.672L0.493408 15.672V13.912Z" fill="white"/>
<path d="M36.1644 0.279999L20.5804 23H16.6764L32.2604 0.279999H36.1644Z" fill="white"/>
<path d="M59.6009 6.264H62.9609L55.9209 23H52.9129L49.9049 15.448L46.8969 23H43.8889L36.8169 6.264H40.1769L45.5529 19.576L47.9209 13.4L45.0409 6.296H48.0169L49.9049 11.512L51.7609 6.296H54.7369L51.8889 13.4L54.2569 19.576L59.6009 6.264Z" fill="white"/>
<path d="M78.5474 15.672L65.0754 23.672V19.768L73.4274 14.712L65.0754 9.528V5.784L78.5474 13.912V15.672Z" fill="white"/>
</svg>
