<svg width="37" height="35" viewBox="0 0 37 35" fill="none" xmlns="http://www.w3.org/2000/svg">
<path d="M29.572 4.21474L4.86717 8.51106C3.74047 8.70707 2.72496 9.30994 2.0134 10.2052C1.30184 11.1005 0.943781 12.2259 1.00718 13.3678L1.37789 29.2549C1.41599 29.9384 1.70459 30.5839 2.18855 31.0681L2.99848 31.8801C3.66778 32.5494 5.28909 34.1383 6.21442 33.9371L32.847 28.1478C33.4679 28.0129 34.0239 27.6697 34.4226 27.175C34.8214 26.6804 35.0388 26.0642 35.0388 25.4288V8.81254C35.0388 7.9459 34.7974 7.0964 34.3418 6.35922C33.8861 5.62204 33.2342 5.02632 32.459 4.63882C31.5668 4.1924 30.5549 4.04377 29.572 4.21474Z" fill="#6D6EEB" stroke="#28203F" stroke-width="1.2" stroke-linecap="round" stroke-linejoin="round"/>
<path d="M32.8471 28.1478C33.468 28.013 34.024 27.6697 34.4227 27.175C34.8215 26.6804 35.0389 26.0642 35.0389 25.4288V8.81256C35.0388 8.13202 34.8898 7.45975 34.6025 6.84284C34.3152 6.22593 33.8964 5.67932 33.3756 5.24129C32.8548 4.80326 32.2444 4.48441 31.5874 4.30709C30.9304 4.12976 30.2425 4.09825 29.572 4.21476L5.38942 8.42093V32.9901C5.38824 33.3374 5.4587 33.6811 5.59641 33.9998C5.80417 34.002 6.0115 33.9807 6.2145 33.9364L32.8471 28.1478Z" fill="#D7DBFA"/>
<path d="M35.0418 8.81256C35.0416 8.13202 34.8927 7.45975 34.6053 6.84284C34.318 6.22593 33.8993 5.67932 33.3784 5.24129C32.8576 4.80326 32.2473 4.48441 31.5903 4.30709C30.9333 4.12976 30.2454 4.09825 29.5749 4.21476L5.3894 8.42093V19.9764L5.97648 23.501C6.03498 23.852 6.21992 24.1695 6.49642 24.3935C6.77291 24.6175 7.12184 24.7326 7.47735 24.717L22.9461 24.0448L35.0418 17.9981V8.81256Z" fill="#6D6EEB"/>
<path d="M32.8471 28.1478C33.468 28.013 34.024 27.6697 34.4227 27.175C34.8215 26.6804 35.0389 26.0642 35.0389 25.4288V8.81256C35.0388 8.13202 34.8898 7.45975 34.6025 6.84284C34.3152 6.22593 33.8964 5.67932 33.3756 5.24129C32.8548 4.80326 32.2444 4.48441 31.5874 4.30709C30.9304 4.12976 30.2425 4.09825 29.572 4.21476L5.38942 8.42093V32.9901C5.38824 33.3374 5.4587 33.6811 5.59641 33.9998C5.80417 34.002 6.0115 33.9807 6.2145 33.9364L32.8471 28.1478Z" stroke="#28203F" stroke-width="1.2" stroke-linecap="round" stroke-linejoin="round"/>
<path d="M30.8391 4.16212C30.4163 4.11937 29.9896 4.1371 29.5719 4.21477L4.86707 8.5111C4.0982 8.64468 3.37512 8.96899 2.76402 9.45435C2.15292 9.9397 1.67333 10.5706 1.36914 11.2893C2.48487 11.2649 3.57203 11.6433 4.43141 12.3553C5.2908 13.0672 5.86487 14.065 6.04844 15.1658L7.17355 21.9085C7.22659 22.2259 7.39388 22.513 7.6439 22.7156C7.89391 22.9182 8.2094 23.0223 8.53089 23.0084L22.5226 22.4004L34.8902 16.2152C35.1277 16.0961 35.3237 15.908 35.4524 15.6756C35.5811 15.4431 35.6365 15.1772 35.6114 14.9127L35.0344 8.81257C35.0333 7.65602 34.604 6.54084 33.8293 5.6821C33.0546 4.82336 31.9894 4.28189 30.8391 4.16212Z" fill="#D7DBFA"/>
<path d="M2.24903 11.3534C2.94243 10.6057 3.86227 10.1065 4.86707 9.93264L29.5719 5.63631C29.9896 5.55864 30.4163 5.54091 30.8391 5.58366C31.9907 5.70176 33.0577 6.24251 33.8339 7.10142C34.6101 7.96033 35.0404 9.07644 35.0416 10.2341L35.5371 15.499C35.6079 15.3117 35.6348 15.1106 35.6157 14.9112L35.0387 8.81113C35.0375 7.65392 34.6076 6.53818 33.832 5.67933C33.0565 4.82049 31.9902 4.27946 30.8391 4.16069C30.4163 4.11794 29.9896 4.13567 29.5719 4.21333L4.86707 8.51111C4.0982 8.64469 3.37512 8.969 2.76402 9.45435C2.15292 9.93971 1.67333 10.5706 1.36914 11.2893C1.66381 11.2829 1.95841 11.3044 2.24903 11.3534Z" fill="#6D6EEB"/>
<path d="M30.8391 4.16212C30.4163 4.11937 29.9896 4.1371 29.5719 4.21477L4.86707 8.5111C4.0982 8.64468 3.37512 8.96899 2.76402 9.45435C2.15292 9.9397 1.67333 10.5706 1.36914 11.2893V11.2893C2.48487 11.2649 3.57203 11.6433 4.43141 12.3553C5.2908 13.0672 5.86487 14.065 6.04844 15.1658L7.17355 21.9085C7.22659 22.2259 7.39388 22.513 7.6439 22.7156C7.89391 22.9182 8.2094 23.0223 8.53089 23.0084L22.5226 22.4004L34.8902 16.2152C35.1277 16.0961 35.3237 15.908 35.4524 15.6756C35.5811 15.4431 35.6365 15.1772 35.6114 14.9127L35.0344 8.81257C35.0333 7.65602 34.604 6.54084 33.8293 5.6821C33.0546 4.82336 31.9894 4.28189 30.8391 4.16212V4.16212Z" stroke="#28203F" stroke-width="1.2" stroke-linecap="round" stroke-linejoin="round"/>
<path d="M12.6369 8.86019C12.4502 8.86029 12.2653 8.82358 12.0928 8.75218C11.9202 8.68077 11.7635 8.57607 11.6315 8.44405C11.4995 8.31202 11.3948 8.15528 11.3233 7.98277C11.2519 7.81026 11.2152 7.62536 11.2153 7.43866V5.84187C11.2174 4.95684 11.525 4.09966 12.0861 3.41526C12.6472 2.73085 13.4275 2.26121 14.295 2.08574L19.3587 1.07602C19.9145 0.964707 20.488 0.97813 21.038 1.11533C21.588 1.25252 22.1007 1.51007 22.5391 1.86939C22.9774 2.22872 23.3306 2.68086 23.5731 3.1932C23.8156 3.70555 23.9414 4.26532 23.9413 4.83216V5.46178C23.9413 5.8388 23.7916 6.20037 23.525 6.46696C23.2584 6.73355 22.8968 6.88332 22.5198 6.88332C22.1428 6.88332 21.7812 6.73355 21.5146 6.46696C21.248 6.20037 21.0983 5.8388 21.0983 5.46178V4.82927C21.0983 4.68302 21.0659 4.53858 21.0034 4.40637C20.9409 4.27416 20.8498 4.15748 20.7367 4.06475C20.6236 3.97201 20.4914 3.90554 20.3495 3.87012C20.2076 3.83471 20.0596 3.83123 19.9162 3.85995L14.8525 4.86966C14.6288 4.91517 14.4278 5.03647 14.2832 5.21308C14.1387 5.38969 14.0595 5.61077 14.0591 5.83898V7.43577C14.0595 7.62276 14.023 7.80797 13.9517 7.98082C13.8804 8.15367 13.7756 8.31075 13.6435 8.44307C13.5114 8.57539 13.3545 8.68034 13.1817 8.75191C13.009 8.82349 12.8238 8.86029 12.6369 8.86019Z" fill="#6D6EEB"/>
<path d="M11.5702 6.9078C11.5723 6.02281 11.88 5.1657 12.4411 4.48132C13.0022 3.79695 13.7824 3.32727 14.6498 3.15167L19.7142 2.14196C20.5342 1.97837 21.3852 2.08711 22.1377 2.45164C22.8902 2.81617 23.503 3.41653 23.8829 4.16138C23.7937 3.65908 23.6051 3.17964 23.3281 2.75121C23.0512 2.32277 22.6914 1.95397 22.27 1.66644C21.8486 1.37891 21.374 1.17845 20.874 1.0768C20.3741 0.975164 19.8589 0.974397 19.3587 1.07455L14.295 2.08426C13.4275 2.25974 12.6472 2.72938 12.0861 3.41378C11.525 4.09818 11.2174 4.95536 11.2153 5.84039V7.43718C11.2153 7.78253 11.3415 8.11598 11.5702 8.37477V6.9078Z" fill="#6D6EEB"/>
<path d="M12.6369 8.86019C12.4502 8.86029 12.2653 8.82358 12.0928 8.75218C11.9202 8.68077 11.7635 8.57607 11.6315 8.44404C11.4995 8.31202 11.3948 8.15528 11.3233 7.98277C11.2519 7.81026 11.2152 7.62536 11.2153 7.43866V5.84187C11.2174 4.95684 11.525 4.09966 12.0861 3.41526C12.6472 2.73085 13.4275 2.26121 14.295 2.08574L19.3587 1.07602C19.9145 0.964707 20.488 0.97813 21.038 1.11533C21.588 1.25252 22.1007 1.51007 22.5391 1.86939C22.9774 2.22872 23.3306 2.68086 23.5731 3.1932C23.8156 3.70555 23.9414 4.26532 23.9413 4.83216V5.46179C23.9413 5.8388 23.7916 6.20037 23.525 6.46696C23.2584 6.73355 22.8968 6.88332 22.5198 6.88332C22.1428 6.88332 21.7812 6.73355 21.5146 6.46696C21.248 6.20037 21.0983 5.8388 21.0983 5.46179V4.82927C21.0983 4.68302 21.0659 4.53858 21.0034 4.40637C20.9409 4.27416 20.8498 4.15748 20.7367 4.06475C20.6236 3.97201 20.4914 3.90554 20.3495 3.87012C20.2076 3.83471 20.0596 3.83123 19.9162 3.85995L14.8525 4.86966C14.6288 4.91517 14.4278 5.03647 14.2832 5.21308C14.1387 5.38969 14.0595 5.61077 14.0591 5.83898V7.43577C14.0595 7.62276 14.023 7.80797 13.9517 7.98082C13.8804 8.15367 13.7756 8.31075 13.6435 8.44307C13.5114 8.57539 13.3545 8.68034 13.1817 8.75191C13.009 8.82349 12.8238 8.86029 12.6369 8.86019V8.86019Z" stroke="#28203F" stroke-width="1.2" stroke-linecap="round" stroke-linejoin="round"/>
<path d="M24.2599 24.836L21.533 25.5399C21.3947 25.5758 21.2503 25.5811 21.1098 25.5554C20.9692 25.5298 20.836 25.4738 20.7193 25.3915C20.6026 25.3091 20.5052 25.2023 20.434 25.0784C20.3628 24.9546 20.3194 24.8167 20.3069 24.6744L20.0668 20.5122C20.0464 20.2805 20.109 20.0491 20.2433 19.8592C20.3776 19.6692 20.575 19.5332 20.8002 19.4751L23.5279 18.7712C23.6662 18.7353 23.8106 18.73 23.9511 18.7557C24.0917 18.7813 24.2249 18.8373 24.3416 18.9196C24.4583 19.002 24.5557 19.1088 24.6269 19.2327C24.6981 19.3565 24.7415 19.4944 24.754 19.6367L24.9934 23.7989C25.0138 24.0306 24.9512 24.262 24.8169 24.4519C24.6826 24.6419 24.4852 24.7779 24.2599 24.836Z" fill="#F2C100" stroke="#28203F" stroke-width="1.2" stroke-linecap="round" stroke-linejoin="round"/>
<path d="M19.6795 21.4528C19.4194 21.4526 19.1683 21.3573 18.9736 21.1849C18.7788 21.0124 18.6538 20.7747 18.6222 20.5165C18.5905 20.2583 18.6544 19.9974 18.8017 19.7831C18.949 19.5687 19.1697 19.4156 19.4221 19.3526L24.687 18.0363C24.9613 17.9677 25.2516 18.0109 25.494 18.1564C25.7365 18.3019 25.9112 18.5377 25.9798 18.812C26.0484 19.0863 26.0052 19.3766 25.8597 19.619C25.7142 19.8615 25.4784 20.0362 25.2041 20.1048L19.9392 21.421C19.8543 21.4422 19.7671 21.4528 19.6795 21.4528Z" fill="#FFE500" stroke="#28203F" stroke-width="1.2" stroke-linecap="round" stroke-linejoin="round"/>
<path d="M22.8183 24.0455C23.2107 24.0455 23.5287 23.5683 23.5287 22.9796C23.5287 22.3909 23.2107 21.9136 22.8183 21.9136C22.426 21.9136 22.1079 22.3909 22.1079 22.9796C22.1079 23.5683 22.426 24.0455 22.8183 24.0455Z" fill="#28203F"/>
</svg>
