<svg width="57" height="47" viewBox="0 0 57 47" fill="none" xmlns="http://www.w3.org/2000/svg">
<path d="M54.6333 13.3965H21.4048V3.45349C21.4048 2.35109 20.5419 1.45459 19.4808 1.45459H2.96374C1.90269 1.45459 1.03979 2.35109 1.03979 3.45349V44.9146C1.03979 46.017 1.90269 46.9135 2.96374 46.9135H19.4808C20.5419 46.9135 21.4048 46.017 21.4048 44.9146V41.0212H32.7845V43.5863H29.0741C27.5734 43.5863 26.3522 44.8546 26.3522 46.4138C26.3522 46.6896 26.5677 46.9135 26.8332 46.9135H46.7773C47.0428 46.9135 47.2583 46.6896 47.2583 46.4138C47.2583 44.8546 46.0376 43.5863 44.5369 43.5863H40.8266V41.0212H54.6333C55.4794 41.0212 56.1672 40.3061 56.1672 39.4276V14.9901C56.1677 14.1111 55.4794 13.3965 54.6333 13.3965Z" fill="#E6E7E8"/>
<path d="M18.5605 1.40942H2.08597C1.29103 1.40942 0.646729 2.07566 0.646729 2.89766V44.0564C0.646729 44.8784 1.29103 45.5446 2.08597 45.5446H18.5605C19.3555 45.5446 19.9998 44.8784 19.9998 44.0564V2.89766C19.9998 2.07566 19.3555 1.40942 18.5605 1.40942Z" fill="#316BC2"/>
<path d="M2.08597 44.0564V2.89766C2.08597 2.07566 2.73027 1.40942 3.52522 1.40942H2.08597C1.29103 1.40942 0.646729 2.07566 0.646729 2.89766V44.0564C0.646729 44.8784 1.29103 45.5446 2.08597 45.5446H3.52522C2.73027 45.5446 2.08597 44.8784 2.08597 44.0564Z" fill="white"/>
<path d="M10.3235 41.7021C9.83995 41.7021 9.448 42.1074 9.448 42.6075C9.448 43.1075 9.83995 43.5123 10.3235 43.5123C10.8071 43.5123 11.1991 43.107 11.1991 42.6075C11.1991 42.1079 10.8071 41.7021 10.3235 41.7021Z" fill="#70AFF8"/>
<path d="M16.1513 5.74023H4.4944C4.22958 5.74023 4.01465 5.96248 4.01465 6.23631V9.01981C4.01465 9.29365 4.22958 9.51589 4.4944 9.51589H16.1513C16.4161 9.51589 16.6311 9.29365 16.6311 9.01981V6.23631C16.6311 5.96248 16.4161 5.74023 16.1513 5.74023Z" fill="#64A4F0"/>
<path d="M16.1513 13.113H4.4944C4.22958 13.113 4.01465 13.3353 4.01465 13.6091V16.3926C4.01465 16.6665 4.22958 16.8887 4.4944 16.8887H16.1513C16.4161 16.8887 16.6311 16.6665 16.6311 16.3926V13.6091C16.6311 13.3348 16.4161 13.113 16.1513 13.113Z" fill="#64A4F0"/>
<path d="M53.6232 13.2643H18.0599C17.4799 13.2643 17.0098 13.7504 17.0098 14.3502V38.6095C17.0098 39.2092 17.4799 39.6954 18.0599 39.6954H53.6232C54.2032 39.6954 54.6733 39.2092 54.6733 38.6095V14.3502C54.6738 13.7504 54.2037 13.2643 53.6232 13.2643Z" fill="#316BC2"/>
<path d="M51.39 15.6769H20.2932C19.7631 15.6769 19.3337 16.1209 19.3337 16.669V35.205C19.3337 35.7532 19.7631 36.1972 20.2932 36.1972H51.39C51.9201 36.1972 52.3495 35.7532 52.3495 35.205V16.669C52.3495 16.1209 51.9201 15.6769 51.39 15.6769Z" fill="#ADCEFF"/>
<path d="M39.3719 39.6956H32.3101V43.2341H39.3719V39.6956Z" fill="#0089EF"/>
<path d="M43.5529 43.2339H28.1299C26.8955 43.2339 25.8953 44.2687 25.8953 45.5446H45.788C45.7875 44.2682 44.7873 43.2339 43.5529 43.2339Z" fill="#0089EF"/>
<path d="M0.646984 27.2821C0.911805 27.2821 1.12673 27.0598 1.12673 26.786V24.1682C1.12673 23.8944 0.911805 23.6721 0.646984 23.6721C0.382163 23.6721 0.167236 23.8944 0.167236 24.1682V26.786C0.167236 27.0603 0.382163 27.2821 0.646984 27.2821Z" fill="#2C3160"/>
<path d="M53.6232 12.7683H20.4802V2.89777C20.4802 1.80342 19.6196 0.913452 18.5613 0.913452H2.08623C1.0279 0.913452 0.167236 1.80342 0.167236 2.89777V22.0469C0.167236 22.3208 0.382163 22.543 0.646984 22.543C0.911805 22.543 1.12673 22.3208 1.12673 22.0469V2.89777C1.12673 2.35059 1.55707 1.90561 2.08623 1.90561H18.5608C19.0899 1.90561 19.5203 2.35059 19.5203 2.89777V12.7678H18.0594C17.2156 12.7678 16.5295 13.4777 16.5295 14.3498V38.609C16.5295 39.4816 17.216 40.191 18.0594 40.191H19.5203V44.056C19.5203 44.6032 19.0899 45.0481 18.5608 45.0481H2.08623C1.55707 45.0481 1.12673 44.6032 1.12673 44.056V28.8125C1.12673 28.5386 0.911805 28.3164 0.646984 28.3164C0.382163 28.3164 0.167236 28.5386 0.167236 28.8125V44.0565C0.167236 45.1508 1.0279 46.0408 2.08623 46.0408H18.5608C19.6191 46.0408 20.4798 45.1508 20.4798 44.0565V40.1915H31.8301V42.7374H28.1294C26.6325 42.7374 25.4149 43.9965 25.4149 45.5442C25.4149 45.8181 25.6299 46.0403 25.8947 46.0403H45.7874C46.0523 46.0403 46.2672 45.8181 46.2672 45.5442C46.2672 43.9965 45.0496 42.7374 43.5528 42.7374H39.852V40.1915H53.6232C54.467 40.1915 55.1531 39.4816 55.1531 38.6095V14.3503C55.1531 13.4777 54.4666 12.7683 53.6232 12.7683ZM43.5528 43.7301C44.3539 43.7301 45.0318 44.2881 45.241 45.0486H26.4411C26.6503 44.2881 27.3282 43.7301 28.1294 43.7301H32.3099H39.3718H43.5528ZM32.7901 42.7379V40.192H38.8925V42.7379H32.7901ZM54.1936 38.6095C54.1936 38.935 53.9374 39.1994 53.6232 39.1994H39.3722H32.3104H18.0594C17.7447 39.1994 17.489 38.9345 17.489 38.6095V14.3503C17.489 14.0248 17.7452 13.7604 18.0594 13.7604H53.6227C53.9374 13.7604 54.1931 14.0253 54.1931 14.3503V38.6095H54.1936Z" fill="#2C3160"/>
<path d="M35.8406 38.8624C36.3242 38.8624 36.7162 38.4571 36.7162 37.9571C36.7162 37.4571 36.3242 37.0518 35.8406 37.0518C35.3571 37.0518 34.9651 37.4571 34.9651 37.9571C34.9651 38.4571 35.3571 38.8624 35.8406 38.8624Z" fill="#70AFF8"/>
<path d="M29.7855 15.6769L23.6174 36.1972H31.8518L38.0199 15.6769H29.7855Z" fill="white"/>
<path d="M39.5771 15.6769L33.4089 36.1972H36.2529L42.421 15.6769H39.5771Z" fill="white"/>
<path d="M44.2314 15.6769L38.0632 36.1972H44.2026L50.3707 15.6769H44.2314Z" fill="white"/>
</svg>
